<?xml version="1.0" standalone="no"?><!DOCTYPE svg PUBLIC "-//W3C//DTD SVG 1.1//EN" "http://www.w3.org/Graphics/SVG/1.1/DTD/svg11.dtd"><svg t="1515081727123" class="icon" style="" viewBox="0 0 1024 1024" version="1.1" xmlns="http://www.w3.org/2000/svg" p-id="2874" xmlns:xlink="http://www.w3.org/1999/xlink" width="200" height="200"><defs><style type="text/css"></style></defs><path d="M513.706667 344.746667m-76.8 0a76.8 76.8 0 1 0 153.6 0 76.8 76.8 0 1 0-153.6 0Z" p-id="2875" fill="#8a8a8a"></path><path d="M513.706667 479.573333c-73.386667 0-133.12-59.733333-134.826667-133.12-122.88-18.773333-223.573333-63.146667-288.426667-98.986666v735.573333c0 17.066667 13.653333 32.426667 32.426667 32.426667h778.24c17.066667 0 32.426667-13.653333 32.426667-32.426667V244.053333c-61.44 35.84-158.72 81.92-285.013334 104.106667-1.706667 73.386667-61.44 131.413333-134.826666 131.413333z m34.133333 375.466667H245.76v-44.373333h302.08v44.373333z m78.506667-112.64H245.76V699.733333h380.586667v42.666667z m155.306666-112.64H245.76v-44.373333h535.893333v44.373333z m119.466667-622.933333H122.88c-17.066667 0-32.426667 13.653333-32.426667 32.426666v146.773334c58.026667 34.133333 163.84 87.04 296.96 109.226666 20.48-49.493333 68.266667-83.626667 124.586667-83.626666s104.106667 34.133333 124.586667 83.626666c139.946667-23.893333 242.346667-80.213333 295.253333-114.346666V39.253333c1.706667-17.066667-13.653333-32.426667-30.72-32.426666z" p-id="2876" fill="#8a8a8a"></path></svg>