<?xml version="1.0" standalone="no"?>
<!DOCTYPE svg PUBLIC "-//W3C//DTD SVG 20010904//EN"
 "http://www.w3.org/TR/2001/REC-SVG-20010904/DTD/svg10.dtd">
<svg version="1.0" xmlns="http://www.w3.org/2000/svg"
 width="260.000000pt" height="60.000000pt" viewBox="0 0 260.000000 60.000000"
 preserveAspectRatio="xMidYMid meet">

<g transform="translate(0.000000,60.000000) scale(0.100000,-0.100000)"
fill="#000000" stroke="none">
<path d="M1160 550 c0 -10 -13 -34 -29 -53 -29 -32 -29 -34 -10 -45 24 -16 24
-33 -1 -55 -27 -23 -25 -35 7 -39 32 -4 40 -24 44 -118 l2 -65 6 84 c7 80 8
84 41 111 27 22 32 32 23 40 -8 9 -14 7 -22 -9 -12 -22 -71 -31 -71 -11 0 13
35 48 70 72 21 14 23 18 11 30 -11 10 -14 10 -18 0 -7 -17 -32 -42 -44 -42
-26 0 -19 34 12 66 28 29 31 36 19 44 -24 15 -40 11 -40 -10z"/>
<path d="M1415 560 c-3 -5 -37 -10 -76 -10 -64 0 -69 -2 -69 -21 0 -18 4 -20
23 -14 12 4 46 9 75 12 l52 5 0 -55 c0 -41 -4 -56 -16 -61 -26 -10 -79 -7 -92
6 -6 6 -13 10 -15 7 -2 -2 -2 -48 1 -101 4 -93 5 -97 31 -107 73 -29 151 -21
166 16 8 22 0 26 -23 14 -24 -13 -121 -14 -140 -2 -9 5 -12 27 -10 72 l3 64
58 3 57 3 0 49 c0 27 5 61 10 76 14 36 -16 74 -35 44z"/>
<path d="M322 541 c7 -11 9 -24 4 -28 -4 -4 -41 -9 -83 -9 l-75 -2 -3 -56 c-2
-41 0 -56 8 -53 7 2 13 17 15 33 5 48 24 54 159 54 l123 0 11 -27 c5 -16 12
-34 15 -42 3 -10 8 -11 16 -3 7 7 7 19 0 41 -7 19 -7 33 -1 36 22 14 -7 27
-55 25 -98 -4 -108 -2 -104 23 2 17 -3 23 -20 25 -21 3 -22 2 -10 -17z"/>
<path d="M893 538 c2 -20 -3 -23 -37 -26 -35 -3 -38 -1 -33 17 4 17 0 21 -18
21 -18 0 -22 -4 -18 -20 4 -16 0 -20 -21 -20 -14 0 -26 -4 -26 -10 0 -5 13
-10 29 -10 20 0 30 -6 34 -20 4 -17 0 -20 -24 -20 -25 0 -29 -4 -29 -27 0 -45
13 -57 53 -49 25 5 36 3 40 -8 8 -20 -1 -26 -44 -26 -21 0 -41 -5 -45 -11 -5
-9 6 -10 40 -7 25 3 49 2 51 -3 9 -13 -12 -20 -70 -21 -57 -2 -61 -4 -46 -27
8 -12 14 -13 36 -3 14 7 38 12 52 12 25 0 25 -1 9 -19 -9 -10 -34 -26 -56 -36
-47 -21 -51 -35 -11 -35 23 0 39 11 70 47 l40 47 50 -13 c48 -12 91 -8 91 8 0
11 -51 21 -101 21 -29 0 -39 4 -39 16 0 12 9 15 38 12 20 -1 39 2 42 7 3 6
-14 11 -38 13 -57 4 -51 28 7 25 40 -2 41 -1 41 33 0 19 0 37 -1 42 0 4 -11 6
-25 5 -34 -3 -28 31 6 35 40 6 48 22 12 22 -30 0 -32 2 -26 25 5 21 3 25 -15
25 -16 0 -20 -6 -18 -22z m-9 -44 c22 -9 20 -34 -3 -34 -11 0 -26 -3 -35 -6
-21 -8 -34 25 -15 37 17 10 32 11 53 3z m37 -65 c11 -5 17 -14 14 -20 -9 -14
-65 -11 -65 4 0 28 19 34 51 16z m-81 -14 c0 -10 -11 -15 -35 -15 -24 0 -35 5
-35 15 0 10 11 15 35 15 24 0 35 -5 35 -15z"/>
<path d="M1713 515 c-23 -24 -60 -49 -84 -57 -43 -14 -64 -38 -34 -38 9 0 26
5 38 12 12 6 61 13 110 14 48 2 92 6 97 9 6 3 23 -3 39 -14 39 -28 91 -39 91
-19 0 8 -15 19 -32 26 -40 14 -148 90 -148 103 0 21 -38 3 -77 -36z m97 -15
l35 -29 -67 -1 c-38 0 -68 2 -68 5 0 7 53 54 60 55 3 0 21 -13 40 -30z"/>
<path d="M2140 540 c0 -12 -15 -29 -40 -45 -22 -14 -40 -28 -40 -31 0 -12 56
8 77 28 22 21 23 21 43 3 11 -10 23 -15 28 -11 4 4 -2 14 -13 22 -11 8 -19 24
-17 34 2 15 -3 20 -17 20 -14 0 -21 -6 -21 -20z"/>
<path d="M2316 531 c5 -23 2 -30 -14 -35 -11 -4 -32 -4 -46 0 -25 6 -26 5 -25
-42 l1 -49 14 32 c12 28 19 32 69 38 68 9 102 1 110 -25 10 -32 25 -23 25 16
0 34 -1 35 -32 33 -66 -4 -71 -2 -64 31 5 27 3 30 -19 30 -22 0 -24 -3 -19
-29z"/>
<path d="M650 526 c0 -15 49 -51 58 -42 6 7 -37 56 -50 56 -4 0 -8 -6 -8 -14z"/>
<path d="M306 425 c-22 -54 -44 -68 -102 -63 -37 3 -45 0 -56 -20 -18 -34 6
-45 46 -21 49 30 90 21 51 -11 -22 -18 -19 -25 17 -35 17 -6 33 -15 35 -21 4
-12 -47 -38 -95 -48 -39 -9 -33 -26 9 -26 34 0 64 13 95 42 21 18 22 18 65 -7
47 -26 88 -32 120 -15 28 16 23 30 -12 30 -38 0 -118 20 -125 31 -2 4 6 24 18
44 22 34 25 36 63 30 55 -9 76 -8 88 4 17 17 1 24 -62 29 -51 4 -58 7 -54 23
3 12 0 19 -8 19 -8 0 -25 3 -39 7 l-25 6 23 -25 c20 -22 21 -26 7 -32 -9 -3
-28 -6 -41 -6 -22 0 -24 2 -13 23 6 12 20 32 31 44 11 12 17 26 13 32 -13 22
-30 10 -49 -34z m49 -116 c-8 -15 -19 -30 -25 -34 -14 -8 -50 17 -50 36 0 23
6 26 50 26 l39 0 -14 -28z"/>
<path d="M2135 450 c5 -16 2 -20 -20 -20 -28 0 -44 -25 -26 -43 6 -6 11 -41
11 -78 0 -58 -3 -67 -20 -72 -14 -3 -20 -14 -20 -31 0 -31 7 -32 35 -6 31 29
84 43 92 24 8 -21 33 -17 33 5 0 10 -9 29 -20 42 -16 20 -19 21 -20 7 0 -10
-6 -18 -14 -18 -8 0 -22 -3 -31 -6 -13 -5 -16 -2 -13 17 2 19 10 25 38 29 35
5 35 5 41 65 6 67 3 79 -17 71 -9 -3 -14 2 -14 14 0 14 -7 20 -21 20 -16 0
-19 -4 -14 -20z m45 -54 c0 -14 -48 -32 -57 -22 -3 3 -3 12 0 21 8 19 57 20
57 1z m0 -51 c0 -8 -3 -15 -7 -15 -5 0 -18 -3 -30 -6 -14 -4 -23 -2 -23 5 0 6
10 16 23 21 32 13 37 12 37 -5z"/>
<path d="M2378 435 c-3 -3 -29 -6 -58 -8 l-54 -2 3 -115 c1 -63 3 -115 4 -116
1 -1 36 2 77 5 l75 6 2 51 1 52 -66 -2 c-54 -1 -67 2 -67 14 0 10 14 17 47 20
26 3 50 9 54 12 13 13 13 88 0 88 -7 0 -15 -2 -18 -5z m-1 -40 c7 -21 2 -25
-41 -32 -28 -4 -37 -2 -42 12 -4 10 -1 21 7 26 23 14 69 10 76 -6z m21 -142
c3 -19 -1 -23 -25 -23 -15 0 -38 -3 -50 -6 -25 -7 -40 14 -29 42 4 11 18 14
53 12 41 -3 48 -6 51 -25z"/>
<path d="M620 403 c0 -24 3 -25 37 -20 34 6 62 22 52 30 -2 3 -23 7 -46 10
-41 5 -43 4 -43 -20z"/>
<path d="M1814 420 c-5 -5 -43 -10 -84 -12 -69 -3 -75 -5 -78 -25 -4 -24 7
-30 24 -14 8 8 114 20 114 13 0 -1 -7 -14 -16 -27 -13 -20 -13 -25 -3 -25 13
1 89 64 89 75 0 11 -38 23 -46 15z"/>
<path d="M1108 283 c-21 -73 -21 -73 -8 -73 13 0 32 70 28 105 -2 25 -6 20
-20 -32z"/>
<path d="M1706 296 c-20 -38 -16 -57 13 -49 11 3 46 -10 84 -31 69 -39 87 -42
136 -25 52 18 39 37 -26 36 -32 0 -68 3 -81 7 -23 8 -23 9 -6 27 16 18 16 21
2 35 -18 18 -40 11 -32 -10 9 -23 -15 -29 -42 -11 -19 12 -23 20 -15 29 10 12
5 26 -8 26 -4 0 -15 -15 -25 -34z"/>
<path d="M1882 297 c-18 -50 -15 -54 18 -22 23 22 27 32 19 42 -17 20 -24 16
-37 -20z"/>
<path d="M664 281 c-30 -35 -31 -39 -18 -64 8 -15 18 -27 22 -27 8 0 36 119
30 125 -2 2 -17 -13 -34 -34z"/>
<path d="M1210 293 c0 -37 8 -63 21 -63 14 0 10 42 -6 70 l-14 25 -1 -32z"/>
<path d="M1644 303 c-3 -10 -12 -33 -20 -51 -18 -42 -18 -72 0 -72 15 0 21 17
31 93 7 46 0 65 -11 30z"/>
<path d="M870 251 c0 -16 77 -71 98 -71 37 0 33 19 -8 40 -60 30 -90 41 -90
31z"/>
</g>
</svg>
