<?xml version="1.0" standalone="no"?><!DOCTYPE svg PUBLIC "-//W3C//DTD SVG 1.1//EN" "http://www.w3.org/Graphics/SVG/1.1/DTD/svg11.dtd"><svg t="1515082391852" class="icon" style="" viewBox="0 0 1024 1024" version="1.1" xmlns="http://www.w3.org/2000/svg" p-id="5012" xmlns:xlink="http://www.w3.org/1999/xlink" width="200" height="200"><defs><style type="text/css"></style></defs><path d="M200.595644 767.619842l183.951569 0 638.562511-638.132722c0 0-74.265424-66.639746-228.562603-66.639746s-298.388924 77.027327-378.055358 156.692738c-79.665411 79.665411-288.795429 291.399743-288.795429 291.399743l0.949628 238.272755L0.021489 881.881189l0.154519 78.382185 447.850981 0 0-64.46829L76.324316 895.795083 200.595644 767.619842zM462.078007 265.126356c36.768415-36.768415 87.125313-70.494541 141.7934-94.964862 62.621223-28.030403 128.555911-42.845831 190.675714-42.845831 44.527123 0 85.472674 6.183839 122.035404 18.408255L357.885993 703.151551l-94.786807 0 304.916595-314.499857-46.286186-44.87607L384.592238 485.223147 384.592238 343.012238C414.976246 312.388776 442.525696 284.678668 462.078007 265.126356zM192.271048 537.310456c26.104541-26.41665 76.089979-76.980255 127.8529-129.251759l0 143.659911L192.852286 682.990373 192.271048 537.310456z" p-id="5013" fill="#8a8a8a"></path></svg>