<?xml version="1.0" standalone="no"?><!DOCTYPE svg PUBLIC "-//W3C//DTD SVG 1.1//EN" "http://www.w3.org/Graphics/SVG/1.1/DTD/svg11.dtd"><svg t="1515082591726" class="icon" style="" viewBox="0 0 1024 1024" version="1.1" xmlns="http://www.w3.org/2000/svg" p-id="11613" xmlns:xlink="http://www.w3.org/1999/xlink" width="200" height="200"><defs><style type="text/css"></style></defs><path d="M64 929.92V585.6c0-6.4 6.4-12.8 12.8-19.2l128-69.76a56.32 56.32 0 0 1 44.8 6.4 28.16 28.16 0 0 1 0 32l-6.4 6.4-115.2 56.96v293.12l147.2-69.76a32.64 32.64 0 0 1 32 0L512 904.32l211.2-82.56a29.44 29.44 0 0 1 32 0l140.8 69.76V598.4l-115.2-69.76c-12.8-6.4-12.8-12.8-12.8-25.6a6.4 6.4 0 0 1 6.4-6.4 39.68 39.68 0 0 1 44.8-6.4l128 76.16c6.4 6.4 12.8 12.8 12.8 19.2v343.68c0 6.4-7.04 49.28-51.2 19.2l-179.2-82.56-204.8 89.6a29.44 29.44 0 0 1-32 0l-204.8-83.2-179.2 83.2s-44.8 19.2-44.8-25.6z" p-id="11614" fill="#8a8a8a"></path><path d="M684.8 64a273.28 273.28 0 0 0-275.2 275.2c0 147.2 275.2 384 275.2 384s275.2-236.8 275.2-384A281.6 281.6 0 0 0 684.8 64z m0 371.2s-151.68-47.36-153.6-172.8a81.92 81.92 0 0 1 83.2-89.6 64 64 0 0 1 64 38.4 74.24 74.24 0 0 1 64-38.4 86.4 86.4 0 0 1 83.2 89.6c6.4 108.8-140.8 172.8-140.8 172.8z" p-id="11615" fill="#8a8a8a"></path><path d="M729.6 211.2a56.96 56.96 0 0 0-51.2 38.4 56.96 56.96 0 0 0-51.2-38.4 60.16 60.16 0 0 0-64 64c0 76.8 115.2 128 115.2 128s115.2-51.2 115.2-128a64 64 0 0 0-64-64z" p-id="11616" fill="#8a8a8a"></path><path d="M428.8 471.04a180.48 180.48 0 0 1-70.4 57.6S256 483.84 256 413.44a53.76 53.76 0 0 1 57.6-57.6 50.56 50.56 0 0 1 44.8 25.6 69.12 69.12 0 0 1 38.4-25.6 248.32 248.32 0 0 1 0-70.4c-12.8 0-25.6-6.4-38.4-6.4a185.6 185.6 0 0 0-185.6 185.6c0 102.4 179.2 256 179.2 256a994.56 994.56 0 0 0 147.2-160 430.72 430.72 0 0 1-70.4-89.6z" p-id="11617" fill="#8a8a8a"></path><path d="M390.4 384a33.92 33.92 0 0 0-32 25.6A47.36 47.36 0 0 0 320 384a37.12 37.12 0 0 0-38.4 38.4C281.6 471.04 358.4 512 358.4 512a419.2 419.2 0 0 0 64-57.6A486.4 486.4 0 0 1 396.8 384z" p-id="11618" fill="#8a8a8a"></path></svg>