<?xml version="1.0" encoding="UTF-8"?>
<svg version="1.1" viewBox="0 0 500 250" xmlns="http://www.w3.org/2000/svg">
 <g transform="matrix(.2 0 0 .2 0 200)">
  <path d="m34 249.48c0-0.28593 1.125-2.302 2.5-4.4801 3.1947-5.0607 3.1444-6.391-0.51816-13.72-5.5559-11.118-16.689-19.095-29.899-21.422l-6.0829-1.0715v-41.886l6.25 0.64765c22.068 2.2868 39.243 10.693 54.087 26.472 4.1285 4.3886 7.8162 7.9794 8.1949 7.9794 0.37867 0 4.3513-3.449 8.8281-7.6645s10.952-9.9212 14.39-12.679c3.4375-2.7582 6.25-5.5976 6.25-6.3098 0-2.3464-11.517-14.728-19.855-21.346-20.122-15.971-41.417-24.646-66.895-27.252l-11.25-1.1507v-20.798c0-11.439 0.3375-20.794 0.75-20.788 6.3826 0.0878 26.943 2.5768 34.158 4.1352 34.678 7.4898 68.987 27.946 90.526 53.974 3.8141 4.609 7.5547 8.9002 8.3124 9.5359 1.0751 0.90199 3.2738 0.26738 10.01-2.8892 4.7476-2.2248 13.146-5.7482 18.662-7.8298 5.5166-2.0816 10.167-4.1951 10.334-4.6966 0.62329-1.8699-15.591-22.119-26.233-32.761-36.158-36.158-84.372-57.848-133.77-60.18l-12.75-0.60173v-42.698l5.25 8.3577e-4c2.8875 4.5967e-4 10.163 0.46676 16.169 1.0362 7.6327 0.72379 11.115 0.71826 11.57-0.018386 0.43568-0.70495 8.9978-0.96521 25.866-0.78622l25.214 0.26755-3.6999 5.2843c-2.1056 3.0073-3.3053 5.6194-2.7841 6.0621 0.50366 0.4278 4.9657 2.2714 9.9157 4.0969s13.21 5.2767 18.356 7.6694l9.3565 4.3503 2.6435-3.1319c9.3443-11.071 17.433-19.814 20.479-22.138l3.5309-2.6931h216.42l4.3398 3.5561c2.3869 1.9559 7.6082 7.4347 11.603 12.175 11.62 13.79 9.2254 12.847 19.967 7.8534 5.1131-2.3773 13.347-5.8159 18.297-7.6414s9.4121-3.6691 9.9158-4.0969c0.52116-0.44266-0.6785-3.0548-2.7841-6.0621l-3.6999-5.2843 25.214-0.26755c16.868-0.17898 25.43 0.081276 25.866 0.78622 0.45527 0.73665 3.9371 0.74218 11.57 0.018385 6.0052-0.56946 13.281-1.0358 16.169-1.0362l5.25-8.3577e-4v43h-7.8136c-4.2975 0-12.87 0.66685-19.049 1.4819-45.689 6.0261-87.029 26.412-119.66 59.009-10.634 10.623-26.857 30.877-26.233 32.75 0.16718 0.50154 4.8176 2.615 10.334 4.6966 5.5167 2.0816 13.99 5.6402 18.829 7.9079l8.7986 4.1232 2.3115-2.734c11.43-13.519 17.094-19.429 24.898-25.979 27.574-23.142 58.687-36.101 94.082-39.188 6.6-0.57554 12.338-1.0511 12.75-1.0568 0.4125-0.0057 0.75 9.349 0.75 20.788v20.798l-11.25 1.1507c-25.478 2.6061-46.773 11.281-66.895 27.252-8.3387 6.6185-19.855 19-19.855 21.346 0 0.71219 2.8125 3.5516 6.25 6.3098s9.9128 8.464 14.39 12.679 8.4494 7.6645 8.8281 7.6645 4.0664-3.5907 8.1949-7.9794c14.844-15.779 32.019-24.185 54.087-26.472l6.25-0.64765v41.886l-6.0828 1.0715c-13.21 2.3269-24.343 10.304-29.899 21.422-3.6626 7.3295-3.7128 8.6598-0.51815 13.72 1.375 2.1781 2.5 4.1942 2.5 4.4801s-11.383 0.51987-25.295 0.51987h-25.295l-3.9555-5.2416c-6.666-8.8334-25.388-26.876-36.455-35.133-27.234-20.318-54.745-32.362-88.5-38.744-14.143-2.6739-44.244-3.656-59.351-1.9363-47.122 5.3639-90.318 26.169-123.65 59.554-6.05 6.0598-12.78 13.377-14.955 16.259l-3.9555 5.2416h-25.295c-13.912 0-25.295-0.23394-25.295-0.51987zm216-123.98c9.625 0 20.766 0.34096 24.758 0.75768l7.2575 0.75768 3.4925-5.4596c1.9209-3.0028 3.4925-6.3094 3.4925-7.348 0-3.7214-6.1087-14.036-11.05-18.658-15.831-14.808-40.069-14.808-55.9 0-4.9414 4.6221-11.05 14.936-11.05 18.658 0 1.0386 1.5716 4.3452 3.4925 7.348l3.4925 5.4596 7.2575-0.75768c3.9916-0.41672 15.133-0.75768 24.758-0.75768zm-58.348-58.25c6.674-6.6079 12.265-11.102 17.348-13.944 20.708-11.581 45.002-14.013 66.961-6.7039 12.606 4.1962 21.491 9.861 32.387 20.648 5.4162 5.3625 10.078 9.75 10.36 9.75s4.1757-3.449 8.6524-7.6645 10.952-9.9212 14.39-12.679 6.25-5.5976 6.25-6.3098c0-2.3464-11.516-14.728-19.855-21.346-20.157-15.999-41.489-24.677-66.895-27.214-31.625-3.1582-63.263 6.4734-89.395 27.214-8.389 6.6584-19.855 19.004-19.855 21.378 0 0.72974 2.5875 3.3655 5.75 5.8571 3.1625 2.4917 9.575 8.1623 14.25 12.601 4.675 4.4391 8.7936 8.0919 9.1524 8.1172 0.35884 0.02533 5.0838-4.3414 10.5-9.7039zm-46.652 179.7c6.4721-5.5385 21.34-15.104 31.054-19.978 46.392-23.28 101.5-23.28 147.89 0 9.9235 4.9798 24.882 14.573 31.054 19.916l3.5 3.0297-108.5 0.0137-108.5 0.0137 3.5-2.9951z" fill="#62d1e9"/>
 </g>
 <g transform="matrix(.2 0 0 .2 100 200)">
  <path d="m34 249.48c0-0.28593 1.125-2.302 2.5-4.4801 3.1947-5.0607 3.1444-6.391-0.51816-13.72-5.5559-11.118-16.689-19.095-29.899-21.422l-6.0829-1.0715v-41.886l6.25 0.64765c22.068 2.2868 39.243 10.693 54.087 26.472 4.1285 4.3886 7.8162 7.9794 8.1949 7.9794 0.37867 0 4.3513-3.449 8.8281-7.6645s10.952-9.9212 14.39-12.679c3.4375-2.7582 6.25-5.5976 6.25-6.3098 0-2.3464-11.517-14.728-19.855-21.346-20.122-15.971-41.417-24.646-66.895-27.252l-11.25-1.1507v-20.798c0-11.439 0.3375-20.794 0.75-20.788 6.3826 0.0878 26.943 2.5768 34.158 4.1352 34.678 7.4898 68.987 27.946 90.526 53.974 3.8141 4.609 7.5547 8.9002 8.3124 9.5359 1.0751 0.90199 3.2738 0.26738 10.01-2.8892 4.7476-2.2248 13.146-5.7482 18.662-7.8298 5.5166-2.0816 10.167-4.1951 10.334-4.6966 0.62329-1.8699-15.591-22.119-26.233-32.761-36.158-36.158-84.372-57.848-133.77-60.18l-12.75-0.60173v-42.698l5.25 8.3577e-4c2.8875 4.5967e-4 10.163 0.46676 16.169 1.0362 7.6327 0.72379 11.115 0.71826 11.57-0.018386 0.43568-0.70495 8.9978-0.96521 25.866-0.78622l25.214 0.26755-3.6999 5.2843c-2.1056 3.0073-3.3053 5.6194-2.7841 6.0621 0.50366 0.4278 4.9657 2.2714 9.9157 4.0969s13.21 5.2767 18.356 7.6694l9.3565 4.3503 2.6435-3.1319c9.3443-11.071 17.433-19.814 20.479-22.138l3.5309-2.6931h216.42l4.3398 3.5561c2.3869 1.9559 7.6082 7.4347 11.603 12.175 11.62 13.79 9.2254 12.847 19.967 7.8534 5.1131-2.3773 13.347-5.8159 18.297-7.6414s9.4121-3.6691 9.9158-4.0969c0.52116-0.44266-0.6785-3.0548-2.7841-6.0621l-3.6999-5.2843 25.214-0.26755c16.868-0.17898 25.43 0.081276 25.866 0.78622 0.45527 0.73665 3.9371 0.74218 11.57 0.018385 6.0052-0.56946 13.281-1.0358 16.169-1.0362l5.25-8.3577e-4v43h-7.8136c-4.2975 0-12.87 0.66685-19.049 1.4819-45.689 6.0261-87.029 26.412-119.66 59.009-10.634 10.623-26.857 30.877-26.233 32.75 0.16718 0.50154 4.8176 2.615 10.334 4.6966 5.5167 2.0816 13.99 5.6402 18.829 7.9079l8.7986 4.1232 2.3115-2.734c11.43-13.519 17.094-19.429 24.898-25.979 27.574-23.142 58.687-36.101 94.082-39.188 6.6-0.57554 12.338-1.0511 12.75-1.0568 0.4125-0.0057 0.75 9.349 0.75 20.788v20.798l-11.25 1.1507c-25.478 2.6061-46.773 11.281-66.895 27.252-8.3387 6.6185-19.855 19-19.855 21.346 0 0.71219 2.8125 3.5516 6.25 6.3098s9.9128 8.464 14.39 12.679 8.4494 7.6645 8.8281 7.6645 4.0664-3.5907 8.1949-7.9794c14.844-15.779 32.019-24.185 54.087-26.472l6.25-0.64765v41.886l-6.0828 1.0715c-13.21 2.3269-24.343 10.304-29.899 21.422-3.6626 7.3295-3.7128 8.6598-0.51815 13.72 1.375 2.1781 2.5 4.1942 2.5 4.4801s-11.383 0.51987-25.295 0.51987h-25.295l-3.9555-5.2416c-6.666-8.8334-25.388-26.876-36.455-35.133-27.234-20.318-54.745-32.362-88.5-38.744-14.143-2.6739-44.244-3.656-59.351-1.9363-47.122 5.3639-90.318 26.169-123.65 59.554-6.05 6.0598-12.78 13.377-14.955 16.259l-3.9555 5.2416h-25.295c-13.912 0-25.295-0.23394-25.295-0.51987zm216-123.98c9.625 0 20.766 0.34096 24.758 0.75768l7.2575 0.75768 3.4925-5.4596c1.9209-3.0028 3.4925-6.3094 3.4925-7.348 0-3.7214-6.1087-14.036-11.05-18.658-15.831-14.808-40.069-14.808-55.9 0-4.9414 4.6221-11.05 14.936-11.05 18.658 0 1.0386 1.5716 4.3452 3.4925 7.348l3.4925 5.4596 7.2575-0.75768c3.9916-0.41672 15.133-0.75768 24.758-0.75768zm-58.348-58.25c6.674-6.6079 12.265-11.102 17.348-13.944 20.708-11.581 45.002-14.013 66.961-6.7039 12.606 4.1962 21.491 9.861 32.387 20.648 5.4162 5.3625 10.078 9.75 10.36 9.75s4.1757-3.449 8.6524-7.6645 10.952-9.9212 14.39-12.679 6.25-5.5976 6.25-6.3098c0-2.3464-11.516-14.728-19.855-21.346-20.157-15.999-41.489-24.677-66.895-27.214-31.625-3.1582-63.263 6.4734-89.395 27.214-8.389 6.6584-19.855 19.004-19.855 21.378 0 0.72974 2.5875 3.3655 5.75 5.8571 3.1625 2.4917 9.575 8.1623 14.25 12.601 4.675 4.4391 8.7936 8.0919 9.1524 8.1172 0.35884 0.02533 5.0838-4.3414 10.5-9.7039zm-46.652 179.7c6.4721-5.5385 21.34-15.104 31.054-19.978 46.392-23.28 101.5-23.28 147.89 0 9.9235 4.9798 24.882 14.573 31.054 19.916l3.5 3.0297-108.5 0.0137-108.5 0.0137 3.5-2.9951z" fill="#62d1e9"/>
 </g>
 <g transform="matrix(.2 0 0 .2 200 200)">
  <path d="m34 249.48c0-0.28593 1.125-2.302 2.5-4.4801 3.1947-5.0607 3.1444-6.391-0.51816-13.72-5.5559-11.118-16.689-19.095-29.899-21.422l-6.0829-1.0715v-41.886l6.25 0.64765c22.068 2.2868 39.243 10.693 54.087 26.472 4.1285 4.3886 7.8162 7.9794 8.1949 7.9794 0.37867 0 4.3513-3.449 8.8281-7.6645s10.952-9.9212 14.39-12.679c3.4375-2.7582 6.25-5.5976 6.25-6.3098 0-2.3464-11.517-14.728-19.855-21.346-20.122-15.971-41.417-24.646-66.895-27.252l-11.25-1.1507v-20.798c0-11.439 0.3375-20.794 0.75-20.788 6.3826 0.0878 26.943 2.5768 34.158 4.1352 34.678 7.4898 68.987 27.946 90.526 53.974 3.8141 4.609 7.5547 8.9002 8.3124 9.5359 1.0751 0.90199 3.2738 0.26738 10.01-2.8892 4.7476-2.2248 13.146-5.7482 18.662-7.8298 5.5166-2.0816 10.167-4.1951 10.334-4.6966 0.62329-1.8699-15.591-22.119-26.233-32.761-36.158-36.158-84.372-57.848-133.77-60.18l-12.75-0.60173v-42.698l5.25 8.3577e-4c2.8875 4.5967e-4 10.163 0.46676 16.169 1.0362 7.6327 0.72379 11.115 0.71826 11.57-0.018386 0.43568-0.70495 8.9978-0.96521 25.866-0.78622l25.214 0.26755-3.6999 5.2843c-2.1056 3.0073-3.3053 5.6194-2.7841 6.0621 0.50366 0.4278 4.9657 2.2714 9.9157 4.0969s13.21 5.2767 18.356 7.6694l9.3565 4.3503 2.6435-3.1319c9.3443-11.071 17.433-19.814 20.479-22.138l3.5309-2.6931h216.42l4.3398 3.5561c2.3869 1.9559 7.6082 7.4347 11.603 12.175 11.62 13.79 9.2254 12.847 19.967 7.8534 5.1131-2.3773 13.347-5.8159 18.297-7.6414s9.4121-3.6691 9.9158-4.0969c0.52116-0.44266-0.6785-3.0548-2.7841-6.0621l-3.6999-5.2843 25.214-0.26755c16.868-0.17898 25.43 0.081276 25.866 0.78622 0.45527 0.73665 3.9371 0.74218 11.57 0.018385 6.0052-0.56946 13.281-1.0358 16.169-1.0362l5.25-8.3577e-4v43h-7.8136c-4.2975 0-12.87 0.66685-19.049 1.4819-45.689 6.0261-87.029 26.412-119.66 59.009-10.634 10.623-26.857 30.877-26.233 32.75 0.16718 0.50154 4.8176 2.615 10.334 4.6966 5.5167 2.0816 13.99 5.6402 18.829 7.9079l8.7986 4.1232 2.3115-2.734c11.43-13.519 17.094-19.429 24.898-25.979 27.574-23.142 58.687-36.101 94.082-39.188 6.6-0.57554 12.338-1.0511 12.75-1.0568 0.4125-0.0057 0.75 9.349 0.75 20.788v20.798l-11.25 1.1507c-25.478 2.6061-46.773 11.281-66.895 27.252-8.3387 6.6185-19.855 19-19.855 21.346 0 0.71219 2.8125 3.5516 6.25 6.3098s9.9128 8.464 14.39 12.679 8.4494 7.6645 8.8281 7.6645 4.0664-3.5907 8.1949-7.9794c14.844-15.779 32.019-24.185 54.087-26.472l6.25-0.64765v41.886l-6.0828 1.0715c-13.21 2.3269-24.343 10.304-29.899 21.422-3.6626 7.3295-3.7128 8.6598-0.51815 13.72 1.375 2.1781 2.5 4.1942 2.5 4.4801s-11.383 0.51987-25.295 0.51987h-25.295l-3.9555-5.2416c-6.666-8.8334-25.388-26.876-36.455-35.133-27.234-20.318-54.745-32.362-88.5-38.744-14.143-2.6739-44.244-3.656-59.351-1.9363-47.122 5.3639-90.318 26.169-123.65 59.554-6.05 6.0598-12.78 13.377-14.955 16.259l-3.9555 5.2416h-25.295c-13.912 0-25.295-0.23394-25.295-0.51987zm216-123.98c9.625 0 20.766 0.34096 24.758 0.75768l7.2575 0.75768 3.4925-5.4596c1.9209-3.0028 3.4925-6.3094 3.4925-7.348 0-3.7214-6.1087-14.036-11.05-18.658-15.831-14.808-40.069-14.808-55.9 0-4.9414 4.6221-11.05 14.936-11.05 18.658 0 1.0386 1.5716 4.3452 3.4925 7.348l3.4925 5.4596 7.2575-0.75768c3.9916-0.41672 15.133-0.75768 24.758-0.75768zm-58.348-58.25c6.674-6.6079 12.265-11.102 17.348-13.944 20.708-11.581 45.002-14.013 66.961-6.7039 12.606 4.1962 21.491 9.861 32.387 20.648 5.4162 5.3625 10.078 9.75 10.36 9.75s4.1757-3.449 8.6524-7.6645 10.952-9.9212 14.39-12.679 6.25-5.5976 6.25-6.3098c0-2.3464-11.516-14.728-19.855-21.346-20.157-15.999-41.489-24.677-66.895-27.214-31.625-3.1582-63.263 6.4734-89.395 27.214-8.389 6.6584-19.855 19.004-19.855 21.378 0 0.72974 2.5875 3.3655 5.75 5.8571 3.1625 2.4917 9.575 8.1623 14.25 12.601 4.675 4.4391 8.7936 8.0919 9.1524 8.1172 0.35884 0.02533 5.0838-4.3414 10.5-9.7039zm-46.652 179.7c6.4721-5.5385 21.34-15.104 31.054-19.978 46.392-23.28 101.5-23.28 147.89 0 9.9235 4.9798 24.882 14.573 31.054 19.916l3.5 3.0297-108.5 0.0137-108.5 0.0137 3.5-2.9951z" fill="#62d1e9"/>
 </g>
 <g transform="matrix(.2 0 0 .2 300 200)">
  <path d="m34 249.48c0-0.28593 1.125-2.302 2.5-4.4801 3.1947-5.0607 3.1444-6.391-0.51816-13.72-5.5559-11.118-16.689-19.095-29.899-21.422l-6.0829-1.0715v-41.886l6.25 0.64765c22.068 2.2868 39.243 10.693 54.087 26.472 4.1285 4.3886 7.8162 7.9794 8.1949 7.9794 0.37867 0 4.3513-3.449 8.8281-7.6645s10.952-9.9212 14.39-12.679c3.4375-2.7582 6.25-5.5976 6.25-6.3098 0-2.3464-11.517-14.728-19.855-21.346-20.122-15.971-41.417-24.646-66.895-27.252l-11.25-1.1507v-20.798c0-11.439 0.3375-20.794 0.75-20.788 6.3826 0.0878 26.943 2.5768 34.158 4.1352 34.678 7.4898 68.987 27.946 90.526 53.974 3.8141 4.609 7.5547 8.9002 8.3124 9.5359 1.0751 0.90199 3.2738 0.26738 10.01-2.8892 4.7476-2.2248 13.146-5.7482 18.662-7.8298 5.5166-2.0816 10.167-4.1951 10.334-4.6966 0.62329-1.8699-15.591-22.119-26.233-32.761-36.158-36.158-84.372-57.848-133.77-60.18l-12.75-0.60173v-42.698l5.25 8.3577e-4c2.8875 4.5967e-4 10.163 0.46676 16.169 1.0362 7.6327 0.72379 11.115 0.71826 11.57-0.018386 0.43568-0.70495 8.9978-0.96521 25.866-0.78622l25.214 0.26755-3.6999 5.2843c-2.1056 3.0073-3.3053 5.6194-2.7841 6.0621 0.50366 0.4278 4.9657 2.2714 9.9157 4.0969s13.21 5.2767 18.356 7.6694l9.3565 4.3503 2.6435-3.1319c9.3443-11.071 17.433-19.814 20.479-22.138l3.5309-2.6931h216.42l4.3398 3.5561c2.3869 1.9559 7.6082 7.4347 11.603 12.175 11.62 13.79 9.2254 12.847 19.967 7.8534 5.1131-2.3773 13.347-5.8159 18.297-7.6414s9.4121-3.6691 9.9158-4.0969c0.52116-0.44266-0.6785-3.0548-2.7841-6.0621l-3.6999-5.2843 25.214-0.26755c16.868-0.17898 25.43 0.081276 25.866 0.78622 0.45527 0.73665 3.9371 0.74218 11.57 0.018385 6.0052-0.56946 13.281-1.0358 16.169-1.0362l5.25-8.3577e-4v43h-7.8136c-4.2975 0-12.87 0.66685-19.049 1.4819-45.689 6.0261-87.029 26.412-119.66 59.009-10.634 10.623-26.857 30.877-26.233 32.75 0.16718 0.50154 4.8176 2.615 10.334 4.6966 5.5167 2.0816 13.99 5.6402 18.829 7.9079l8.7986 4.1232 2.3115-2.734c11.43-13.519 17.094-19.429 24.898-25.979 27.574-23.142 58.687-36.101 94.082-39.188 6.6-0.57554 12.338-1.0511 12.75-1.0568 0.4125-0.0057 0.75 9.349 0.75 20.788v20.798l-11.25 1.1507c-25.478 2.6061-46.773 11.281-66.895 27.252-8.3387 6.6185-19.855 19-19.855 21.346 0 0.71219 2.8125 3.5516 6.25 6.3098s9.9128 8.464 14.39 12.679 8.4494 7.6645 8.8281 7.6645 4.0664-3.5907 8.1949-7.9794c14.844-15.779 32.019-24.185 54.087-26.472l6.25-0.64765v41.886l-6.0828 1.0715c-13.21 2.3269-24.343 10.304-29.899 21.422-3.6626 7.3295-3.7128 8.6598-0.51815 13.72 1.375 2.1781 2.5 4.1942 2.5 4.4801s-11.383 0.51987-25.295 0.51987h-25.295l-3.9555-5.2416c-6.666-8.8334-25.388-26.876-36.455-35.133-27.234-20.318-54.745-32.362-88.5-38.744-14.143-2.6739-44.244-3.656-59.351-1.9363-47.122 5.3639-90.318 26.169-123.65 59.554-6.05 6.0598-12.78 13.377-14.955 16.259l-3.9555 5.2416h-25.295c-13.912 0-25.295-0.23394-25.295-0.51987zm216-123.98c9.625 0 20.766 0.34096 24.758 0.75768l7.2575 0.75768 3.4925-5.4596c1.9209-3.0028 3.4925-6.3094 3.4925-7.348 0-3.7214-6.1087-14.036-11.05-18.658-15.831-14.808-40.069-14.808-55.9 0-4.9414 4.6221-11.05 14.936-11.05 18.658 0 1.0386 1.5716 4.3452 3.4925 7.348l3.4925 5.4596 7.2575-0.75768c3.9916-0.41672 15.133-0.75768 24.758-0.75768zm-58.348-58.25c6.674-6.6079 12.265-11.102 17.348-13.944 20.708-11.581 45.002-14.013 66.961-6.7039 12.606 4.1962 21.491 9.861 32.387 20.648 5.4162 5.3625 10.078 9.75 10.36 9.75s4.1757-3.449 8.6524-7.6645 10.952-9.9212 14.39-12.679 6.25-5.5976 6.25-6.3098c0-2.3464-11.516-14.728-19.855-21.346-20.157-15.999-41.489-24.677-66.895-27.214-31.625-3.1582-63.263 6.4734-89.395 27.214-8.389 6.6584-19.855 19.004-19.855 21.378 0 0.72974 2.5875 3.3655 5.75 5.8571 3.1625 2.4917 9.575 8.1623 14.25 12.601 4.675 4.4391 8.7936 8.0919 9.1524 8.1172 0.35884 0.02533 5.0838-4.3414 10.5-9.7039zm-46.652 179.7c6.4721-5.5385 21.34-15.104 31.054-19.978 46.392-23.28 101.5-23.28 147.89 0 9.9235 4.9798 24.882 14.573 31.054 19.916l3.5 3.0297-108.5 0.0137-108.5 0.0137 3.5-2.9951z" fill="#62d1e9"/>
 </g>
 <g transform="matrix(.2 0 0 .2 400 200)">
  <path d="m34 249.48c0-0.28593 1.125-2.302 2.5-4.4801 3.1947-5.0607 3.1444-6.391-0.51816-13.72-5.5559-11.118-16.689-19.095-29.899-21.422l-6.0829-1.0715v-41.886l6.25 0.64765c22.068 2.2868 39.243 10.693 54.087 26.472 4.1285 4.3886 7.8162 7.9794 8.1949 7.9794 0.37867 0 4.3513-3.449 8.8281-7.6645s10.952-9.9212 14.39-12.679c3.4375-2.7582 6.25-5.5976 6.25-6.3098 0-2.3464-11.517-14.728-19.855-21.346-20.122-15.971-41.417-24.646-66.895-27.252l-11.25-1.1507v-20.798c0-11.439 0.3375-20.794 0.75-20.788 6.3826 0.0878 26.943 2.5768 34.158 4.1352 34.678 7.4898 68.987 27.946 90.526 53.974 3.8141 4.609 7.5547 8.9002 8.3124 9.5359 1.0751 0.90199 3.2738 0.26738 10.01-2.8892 4.7476-2.2248 13.146-5.7482 18.662-7.8298 5.5166-2.0816 10.167-4.1951 10.334-4.6966 0.62329-1.8699-15.591-22.119-26.233-32.761-36.158-36.158-84.372-57.848-133.77-60.18l-12.75-0.60173v-42.698l5.25 8.3577e-4c2.8875 4.5967e-4 10.163 0.46676 16.169 1.0362 7.6327 0.72379 11.115 0.71826 11.57-0.018386 0.43568-0.70495 8.9978-0.96521 25.866-0.78622l25.214 0.26755-3.6999 5.2843c-2.1056 3.0073-3.3053 5.6194-2.7841 6.0621 0.50366 0.4278 4.9657 2.2714 9.9157 4.0969s13.21 5.2767 18.356 7.6694l9.3565 4.3503 2.6435-3.1319c9.3443-11.071 17.433-19.814 20.479-22.138l3.5309-2.6931h216.42l4.3398 3.5561c2.3869 1.9559 7.6082 7.4347 11.603 12.175 11.62 13.79 9.2254 12.847 19.967 7.8534 5.1131-2.3773 13.347-5.8159 18.297-7.6414s9.4121-3.6691 9.9158-4.0969c0.52116-0.44266-0.6785-3.0548-2.7841-6.0621l-3.6999-5.2843 25.214-0.26755c16.868-0.17898 25.43 0.081276 25.866 0.78622 0.45527 0.73665 3.9371 0.74218 11.57 0.018385 6.0052-0.56946 13.281-1.0358 16.169-1.0362l5.25-8.3577e-4v43h-7.8136c-4.2975 0-12.87 0.66685-19.049 1.4819-45.689 6.0261-87.029 26.412-119.66 59.009-10.634 10.623-26.857 30.877-26.233 32.75 0.16718 0.50154 4.8176 2.615 10.334 4.6966 5.5167 2.0816 13.99 5.6402 18.829 7.9079l8.7986 4.1232 2.3115-2.734c11.43-13.519 17.094-19.429 24.898-25.979 27.574-23.142 58.687-36.101 94.082-39.188 6.6-0.57554 12.338-1.0511 12.75-1.0568 0.4125-0.0057 0.75 9.349 0.75 20.788v20.798l-11.25 1.1507c-25.478 2.6061-46.773 11.281-66.895 27.252-8.3387 6.6185-19.855 19-19.855 21.346 0 0.71219 2.8125 3.5516 6.25 6.3098s9.9128 8.464 14.39 12.679 8.4494 7.6645 8.8281 7.6645 4.0664-3.5907 8.1949-7.9794c14.844-15.779 32.019-24.185 54.087-26.472l6.25-0.64765v41.886l-6.0828 1.0715c-13.21 2.3269-24.343 10.304-29.899 21.422-3.6626 7.3295-3.7128 8.6598-0.51815 13.72 1.375 2.1781 2.5 4.1942 2.5 4.4801s-11.383 0.51987-25.295 0.51987h-25.295l-3.9555-5.2416c-6.666-8.8334-25.388-26.876-36.455-35.133-27.234-20.318-54.745-32.362-88.5-38.744-14.143-2.6739-44.244-3.656-59.351-1.9363-47.122 5.3639-90.318 26.169-123.65 59.554-6.05 6.0598-12.78 13.377-14.955 16.259l-3.9555 5.2416h-25.295c-13.912 0-25.295-0.23394-25.295-0.51987zm216-123.98c9.625 0 20.766 0.34096 24.758 0.75768l7.2575 0.75768 3.4925-5.4596c1.9209-3.0028 3.4925-6.3094 3.4925-7.348 0-3.7214-6.1087-14.036-11.05-18.658-15.831-14.808-40.069-14.808-55.9 0-4.9414 4.6221-11.05 14.936-11.05 18.658 0 1.0386 1.5716 4.3452 3.4925 7.348l3.4925 5.4596 7.2575-0.75768c3.9916-0.41672 15.133-0.75768 24.758-0.75768zm-58.348-58.25c6.674-6.6079 12.265-11.102 17.348-13.944 20.708-11.581 45.002-14.013 66.961-6.7039 12.606 4.1962 21.491 9.861 32.387 20.648 5.4162 5.3625 10.078 9.75 10.36 9.75s4.1757-3.449 8.6524-7.6645 10.952-9.9212 14.39-12.679 6.25-5.5976 6.25-6.3098c0-2.3464-11.516-14.728-19.855-21.346-20.157-15.999-41.489-24.677-66.895-27.214-31.625-3.1582-63.263 6.4734-89.395 27.214-8.389 6.6584-19.855 19.004-19.855 21.378 0 0.72974 2.5875 3.3655 5.75 5.8571 3.1625 2.4917 9.575 8.1623 14.25 12.601 4.675 4.4391 8.7936 8.0919 9.1524 8.1172 0.35884 0.02533 5.0838-4.3414 10.5-9.7039zm-46.652 179.7c6.4721-5.5385 21.34-15.104 31.054-19.978 46.392-23.28 101.5-23.28 147.89 0 9.9235 4.9798 24.882 14.573 31.054 19.916l3.5 3.0297-108.5 0.0137-108.5 0.0137 3.5-2.9951z" fill="#62d1e9"/>
 </g>
 <g transform="translate(0,-50)">
  <g transform="matrix(.2 0 0 .2 0 200)">
   <path d="m34 249.48c0-0.28593 1.125-2.302 2.5-4.4801 3.1947-5.0607 3.1444-6.391-0.51816-13.72-5.5559-11.118-16.689-19.095-29.899-21.422l-6.0829-1.0715v-41.886l6.25 0.64765c22.068 2.2868 39.243 10.693 54.087 26.472 4.1285 4.3886 7.8162 7.9794 8.1949 7.9794 0.37867 0 4.3513-3.449 8.8281-7.6645s10.952-9.9212 14.39-12.679c3.4375-2.7582 6.25-5.5976 6.25-6.3098 0-2.3464-11.517-14.728-19.855-21.346-20.122-15.971-41.417-24.646-66.895-27.252l-11.25-1.1507v-20.798c0-11.439 0.3375-20.794 0.75-20.788 6.3826 0.0878 26.943 2.5768 34.158 4.1352 34.678 7.4898 68.987 27.946 90.526 53.974 3.8141 4.609 7.5547 8.9002 8.3124 9.5359 1.0751 0.90199 3.2738 0.26738 10.01-2.8892 4.7476-2.2248 13.146-5.7482 18.662-7.8298 5.5166-2.0816 10.167-4.1951 10.334-4.6966 0.62329-1.8699-15.591-22.119-26.233-32.761-36.158-36.158-84.372-57.848-133.77-60.18l-12.75-0.60173v-42.698l5.25 8.3577e-4c2.8875 4.5967e-4 10.163 0.46676 16.169 1.0362 7.6327 0.72379 11.115 0.71826 11.57-0.018386 0.43568-0.70495 8.9978-0.96521 25.866-0.78622l25.214 0.26755-3.6999 5.2843c-2.1056 3.0073-3.3053 5.6194-2.7841 6.0621 0.50366 0.4278 4.9657 2.2714 9.9157 4.0969s13.21 5.2767 18.356 7.6694l9.3565 4.3503 2.6435-3.1319c9.3443-11.071 17.433-19.814 20.479-22.138l3.5309-2.6931h216.42l4.3398 3.5561c2.3869 1.9559 7.6082 7.4347 11.603 12.175 11.62 13.79 9.2254 12.847 19.967 7.8534 5.1131-2.3773 13.347-5.8159 18.297-7.6414s9.4121-3.6691 9.9158-4.0969c0.52116-0.44266-0.6785-3.0548-2.7841-6.0621l-3.6999-5.2843 25.214-0.26755c16.868-0.17898 25.43 0.081276 25.866 0.78622 0.45527 0.73665 3.9371 0.74218 11.57 0.018385 6.0052-0.56946 13.281-1.0358 16.169-1.0362l5.25-8.3577e-4v43h-7.8136c-4.2975 0-12.87 0.66685-19.049 1.4819-45.689 6.0261-87.029 26.412-119.66 59.009-10.634 10.623-26.857 30.877-26.233 32.75 0.16718 0.50154 4.8176 2.615 10.334 4.6966 5.5167 2.0816 13.99 5.6402 18.829 7.9079l8.7986 4.1232 2.3115-2.734c11.43-13.519 17.094-19.429 24.898-25.979 27.574-23.142 58.687-36.101 94.082-39.188 6.6-0.57554 12.338-1.0511 12.75-1.0568 0.4125-0.0057 0.75 9.349 0.75 20.788v20.798l-11.25 1.1507c-25.478 2.6061-46.773 11.281-66.895 27.252-8.3387 6.6185-19.855 19-19.855 21.346 0 0.71219 2.8125 3.5516 6.25 6.3098s9.9128 8.464 14.39 12.679 8.4494 7.6645 8.8281 7.6645 4.0664-3.5907 8.1949-7.9794c14.844-15.779 32.019-24.185 54.087-26.472l6.25-0.64765v41.886l-6.0828 1.0715c-13.21 2.3269-24.343 10.304-29.899 21.422-3.6626 7.3295-3.7128 8.6598-0.51815 13.72 1.375 2.1781 2.5 4.1942 2.5 4.4801s-11.383 0.51987-25.295 0.51987h-25.295l-3.9555-5.2416c-6.666-8.8334-25.388-26.876-36.455-35.133-27.234-20.318-54.745-32.362-88.5-38.744-14.143-2.6739-44.244-3.656-59.351-1.9363-47.122 5.3639-90.318 26.169-123.65 59.554-6.05 6.0598-12.78 13.377-14.955 16.259l-3.9555 5.2416h-25.295c-13.912 0-25.295-0.23394-25.295-0.51987zm216-123.98c9.625 0 20.766 0.34096 24.758 0.75768l7.2575 0.75768 3.4925-5.4596c1.9209-3.0028 3.4925-6.3094 3.4925-7.348 0-3.7214-6.1087-14.036-11.05-18.658-15.831-14.808-40.069-14.808-55.9 0-4.9414 4.6221-11.05 14.936-11.05 18.658 0 1.0386 1.5716 4.3452 3.4925 7.348l3.4925 5.4596 7.2575-0.75768c3.9916-0.41672 15.133-0.75768 24.758-0.75768zm-58.348-58.25c6.674-6.6079 12.265-11.102 17.348-13.944 20.708-11.581 45.002-14.013 66.961-6.7039 12.606 4.1962 21.491 9.861 32.387 20.648 5.4162 5.3625 10.078 9.75 10.36 9.75s4.1757-3.449 8.6524-7.6645 10.952-9.9212 14.39-12.679 6.25-5.5976 6.25-6.3098c0-2.3464-11.516-14.728-19.855-21.346-20.157-15.999-41.489-24.677-66.895-27.214-31.625-3.1582-63.263 6.4734-89.395 27.214-8.389 6.6584-19.855 19.004-19.855 21.378 0 0.72974 2.5875 3.3655 5.75 5.8571 3.1625 2.4917 9.575 8.1623 14.25 12.601 4.675 4.4391 8.7936 8.0919 9.1524 8.1172 0.35884 0.02533 5.0838-4.3414 10.5-9.7039zm-46.652 179.7c6.4721-5.5385 21.34-15.104 31.054-19.978 46.392-23.28 101.5-23.28 147.89 0 9.9235 4.9798 24.882 14.573 31.054 19.916l3.5 3.0297-108.5 0.0137-108.5 0.0137 3.5-2.9951z" fill="#62d1e9"/>
  </g>
  <g transform="matrix(.2 0 0 .2 100 200)">
   <path d="m34 249.48c0-0.28593 1.125-2.302 2.5-4.4801 3.1947-5.0607 3.1444-6.391-0.51816-13.72-5.5559-11.118-16.689-19.095-29.899-21.422l-6.0829-1.0715v-41.886l6.25 0.64765c22.068 2.2868 39.243 10.693 54.087 26.472 4.1285 4.3886 7.8162 7.9794 8.1949 7.9794 0.37867 0 4.3513-3.449 8.8281-7.6645s10.952-9.9212 14.39-12.679c3.4375-2.7582 6.25-5.5976 6.25-6.3098 0-2.3464-11.517-14.728-19.855-21.346-20.122-15.971-41.417-24.646-66.895-27.252l-11.25-1.1507v-20.798c0-11.439 0.3375-20.794 0.75-20.788 6.3826 0.0878 26.943 2.5768 34.158 4.1352 34.678 7.4898 68.987 27.946 90.526 53.974 3.8141 4.609 7.5547 8.9002 8.3124 9.5359 1.0751 0.90199 3.2738 0.26738 10.01-2.8892 4.7476-2.2248 13.146-5.7482 18.662-7.8298 5.5166-2.0816 10.167-4.1951 10.334-4.6966 0.62329-1.8699-15.591-22.119-26.233-32.761-36.158-36.158-84.372-57.848-133.77-60.18l-12.75-0.60173v-42.698l5.25 8.3577e-4c2.8875 4.5967e-4 10.163 0.46676 16.169 1.0362 7.6327 0.72379 11.115 0.71826 11.57-0.018386 0.43568-0.70495 8.9978-0.96521 25.866-0.78622l25.214 0.26755-3.6999 5.2843c-2.1056 3.0073-3.3053 5.6194-2.7841 6.0621 0.50366 0.4278 4.9657 2.2714 9.9157 4.0969s13.21 5.2767 18.356 7.6694l9.3565 4.3503 2.6435-3.1319c9.3443-11.071 17.433-19.814 20.479-22.138l3.5309-2.6931h216.42l4.3398 3.5561c2.3869 1.9559 7.6082 7.4347 11.603 12.175 11.62 13.79 9.2254 12.847 19.967 7.8534 5.1131-2.3773 13.347-5.8159 18.297-7.6414s9.4121-3.6691 9.9158-4.0969c0.52116-0.44266-0.6785-3.0548-2.7841-6.0621l-3.6999-5.2843 25.214-0.26755c16.868-0.17898 25.43 0.081276 25.866 0.78622 0.45527 0.73665 3.9371 0.74218 11.57 0.018385 6.0052-0.56946 13.281-1.0358 16.169-1.0362l5.25-8.3577e-4v43h-7.8136c-4.2975 0-12.87 0.66685-19.049 1.4819-45.689 6.0261-87.029 26.412-119.66 59.009-10.634 10.623-26.857 30.877-26.233 32.75 0.16718 0.50154 4.8176 2.615 10.334 4.6966 5.5167 2.0816 13.99 5.6402 18.829 7.9079l8.7986 4.1232 2.3115-2.734c11.43-13.519 17.094-19.429 24.898-25.979 27.574-23.142 58.687-36.101 94.082-39.188 6.6-0.57554 12.338-1.0511 12.75-1.0568 0.4125-0.0057 0.75 9.349 0.75 20.788v20.798l-11.25 1.1507c-25.478 2.6061-46.773 11.281-66.895 27.252-8.3387 6.6185-19.855 19-19.855 21.346 0 0.71219 2.8125 3.5516 6.25 6.3098s9.9128 8.464 14.39 12.679 8.4494 7.6645 8.8281 7.6645 4.0664-3.5907 8.1949-7.9794c14.844-15.779 32.019-24.185 54.087-26.472l6.25-0.64765v41.886l-6.0828 1.0715c-13.21 2.3269-24.343 10.304-29.899 21.422-3.6626 7.3295-3.7128 8.6598-0.51815 13.72 1.375 2.1781 2.5 4.1942 2.5 4.4801s-11.383 0.51987-25.295 0.51987h-25.295l-3.9555-5.2416c-6.666-8.8334-25.388-26.876-36.455-35.133-27.234-20.318-54.745-32.362-88.5-38.744-14.143-2.6739-44.244-3.656-59.351-1.9363-47.122 5.3639-90.318 26.169-123.65 59.554-6.05 6.0598-12.78 13.377-14.955 16.259l-3.9555 5.2416h-25.295c-13.912 0-25.295-0.23394-25.295-0.51987zm216-123.98c9.625 0 20.766 0.34096 24.758 0.75768l7.2575 0.75768 3.4925-5.4596c1.9209-3.0028 3.4925-6.3094 3.4925-7.348 0-3.7214-6.1087-14.036-11.05-18.658-15.831-14.808-40.069-14.808-55.9 0-4.9414 4.6221-11.05 14.936-11.05 18.658 0 1.0386 1.5716 4.3452 3.4925 7.348l3.4925 5.4596 7.2575-0.75768c3.9916-0.41672 15.133-0.75768 24.758-0.75768zm-58.348-58.25c6.674-6.6079 12.265-11.102 17.348-13.944 20.708-11.581 45.002-14.013 66.961-6.7039 12.606 4.1962 21.491 9.861 32.387 20.648 5.4162 5.3625 10.078 9.75 10.36 9.75s4.1757-3.449 8.6524-7.6645 10.952-9.9212 14.39-12.679 6.25-5.5976 6.25-6.3098c0-2.3464-11.516-14.728-19.855-21.346-20.157-15.999-41.489-24.677-66.895-27.214-31.625-3.1582-63.263 6.4734-89.395 27.214-8.389 6.6584-19.855 19.004-19.855 21.378 0 0.72974 2.5875 3.3655 5.75 5.8571 3.1625 2.4917 9.575 8.1623 14.25 12.601 4.675 4.4391 8.7936 8.0919 9.1524 8.1172 0.35884 0.02533 5.0838-4.3414 10.5-9.7039zm-46.652 179.7c6.4721-5.5385 21.34-15.104 31.054-19.978 46.392-23.28 101.5-23.28 147.89 0 9.9235 4.9798 24.882 14.573 31.054 19.916l3.5 3.0297-108.5 0.0137-108.5 0.0137 3.5-2.9951z" fill="#62d1e9"/>
  </g>
  <g transform="matrix(.2 0 0 .2 200 200)">
   <path d="m34 249.48c0-0.28593 1.125-2.302 2.5-4.4801 3.1947-5.0607 3.1444-6.391-0.51816-13.72-5.5559-11.118-16.689-19.095-29.899-21.422l-6.0829-1.0715v-41.886l6.25 0.64765c22.068 2.2868 39.243 10.693 54.087 26.472 4.1285 4.3886 7.8162 7.9794 8.1949 7.9794 0.37867 0 4.3513-3.449 8.8281-7.6645s10.952-9.9212 14.39-12.679c3.4375-2.7582 6.25-5.5976 6.25-6.3098 0-2.3464-11.517-14.728-19.855-21.346-20.122-15.971-41.417-24.646-66.895-27.252l-11.25-1.1507v-20.798c0-11.439 0.3375-20.794 0.75-20.788 6.3826 0.0878 26.943 2.5768 34.158 4.1352 34.678 7.4898 68.987 27.946 90.526 53.974 3.8141 4.609 7.5547 8.9002 8.3124 9.5359 1.0751 0.90199 3.2738 0.26738 10.01-2.8892 4.7476-2.2248 13.146-5.7482 18.662-7.8298 5.5166-2.0816 10.167-4.1951 10.334-4.6966 0.62329-1.8699-15.591-22.119-26.233-32.761-36.158-36.158-84.372-57.848-133.77-60.18l-12.75-0.60173v-42.698l5.25 8.3577e-4c2.8875 4.5967e-4 10.163 0.46676 16.169 1.0362 7.6327 0.72379 11.115 0.71826 11.57-0.018386 0.43568-0.70495 8.9978-0.96521 25.866-0.78622l25.214 0.26755-3.6999 5.2843c-2.1056 3.0073-3.3053 5.6194-2.7841 6.0621 0.50366 0.4278 4.9657 2.2714 9.9157 4.0969s13.21 5.2767 18.356 7.6694l9.3565 4.3503 2.6435-3.1319c9.3443-11.071 17.433-19.814 20.479-22.138l3.5309-2.6931h216.42l4.3398 3.5561c2.3869 1.9559 7.6082 7.4347 11.603 12.175 11.62 13.79 9.2254 12.847 19.967 7.8534 5.1131-2.3773 13.347-5.8159 18.297-7.6414s9.4121-3.6691 9.9158-4.0969c0.52116-0.44266-0.6785-3.0548-2.7841-6.0621l-3.6999-5.2843 25.214-0.26755c16.868-0.17898 25.43 0.081276 25.866 0.78622 0.45527 0.73665 3.9371 0.74218 11.57 0.018385 6.0052-0.56946 13.281-1.0358 16.169-1.0362l5.25-8.3577e-4v43h-7.8136c-4.2975 0-12.87 0.66685-19.049 1.4819-45.689 6.0261-87.029 26.412-119.66 59.009-10.634 10.623-26.857 30.877-26.233 32.75 0.16718 0.50154 4.8176 2.615 10.334 4.6966 5.5167 2.0816 13.99 5.6402 18.829 7.9079l8.7986 4.1232 2.3115-2.734c11.43-13.519 17.094-19.429 24.898-25.979 27.574-23.142 58.687-36.101 94.082-39.188 6.6-0.57554 12.338-1.0511 12.75-1.0568 0.4125-0.0057 0.75 9.349 0.75 20.788v20.798l-11.25 1.1507c-25.478 2.6061-46.773 11.281-66.895 27.252-8.3387 6.6185-19.855 19-19.855 21.346 0 0.71219 2.8125 3.5516 6.25 6.3098s9.9128 8.464 14.39 12.679 8.4494 7.6645 8.8281 7.6645 4.0664-3.5907 8.1949-7.9794c14.844-15.779 32.019-24.185 54.087-26.472l6.25-0.64765v41.886l-6.0828 1.0715c-13.21 2.3269-24.343 10.304-29.899 21.422-3.6626 7.3295-3.7128 8.6598-0.51815 13.72 1.375 2.1781 2.5 4.1942 2.5 4.4801s-11.383 0.51987-25.295 0.51987h-25.295l-3.9555-5.2416c-6.666-8.8334-25.388-26.876-36.455-35.133-27.234-20.318-54.745-32.362-88.5-38.744-14.143-2.6739-44.244-3.656-59.351-1.9363-47.122 5.3639-90.318 26.169-123.65 59.554-6.05 6.0598-12.78 13.377-14.955 16.259l-3.9555 5.2416h-25.295c-13.912 0-25.295-0.23394-25.295-0.51987zm216-123.98c9.625 0 20.766 0.34096 24.758 0.75768l7.2575 0.75768 3.4925-5.4596c1.9209-3.0028 3.4925-6.3094 3.4925-7.348 0-3.7214-6.1087-14.036-11.05-18.658-15.831-14.808-40.069-14.808-55.9 0-4.9414 4.6221-11.05 14.936-11.05 18.658 0 1.0386 1.5716 4.3452 3.4925 7.348l3.4925 5.4596 7.2575-0.75768c3.9916-0.41672 15.133-0.75768 24.758-0.75768zm-58.348-58.25c6.674-6.6079 12.265-11.102 17.348-13.944 20.708-11.581 45.002-14.013 66.961-6.7039 12.606 4.1962 21.491 9.861 32.387 20.648 5.4162 5.3625 10.078 9.75 10.36 9.75s4.1757-3.449 8.6524-7.6645 10.952-9.9212 14.39-12.679 6.25-5.5976 6.25-6.3098c0-2.3464-11.516-14.728-19.855-21.346-20.157-15.999-41.489-24.677-66.895-27.214-31.625-3.1582-63.263 6.4734-89.395 27.214-8.389 6.6584-19.855 19.004-19.855 21.378 0 0.72974 2.5875 3.3655 5.75 5.8571 3.1625 2.4917 9.575 8.1623 14.25 12.601 4.675 4.4391 8.7936 8.0919 9.1524 8.1172 0.35884 0.02533 5.0838-4.3414 10.5-9.7039zm-46.652 179.7c6.4721-5.5385 21.34-15.104 31.054-19.978 46.392-23.28 101.5-23.28 147.89 0 9.9235 4.9798 24.882 14.573 31.054 19.916l3.5 3.0297-108.5 0.0137-108.5 0.0137 3.5-2.9951z" fill="#62d1e9"/>
  </g>
  <g transform="matrix(.2 0 0 .2 300 200)">
   <path d="m34 249.48c0-0.28593 1.125-2.302 2.5-4.4801 3.1947-5.0607 3.1444-6.391-0.51816-13.72-5.5559-11.118-16.689-19.095-29.899-21.422l-6.0829-1.0715v-41.886l6.25 0.64765c22.068 2.2868 39.243 10.693 54.087 26.472 4.1285 4.3886 7.8162 7.9794 8.1949 7.9794 0.37867 0 4.3513-3.449 8.8281-7.6645s10.952-9.9212 14.39-12.679c3.4375-2.7582 6.25-5.5976 6.25-6.3098 0-2.3464-11.517-14.728-19.855-21.346-20.122-15.971-41.417-24.646-66.895-27.252l-11.25-1.1507v-20.798c0-11.439 0.3375-20.794 0.75-20.788 6.3826 0.0878 26.943 2.5768 34.158 4.1352 34.678 7.4898 68.987 27.946 90.526 53.974 3.8141 4.609 7.5547 8.9002 8.3124 9.5359 1.0751 0.90199 3.2738 0.26738 10.01-2.8892 4.7476-2.2248 13.146-5.7482 18.662-7.8298 5.5166-2.0816 10.167-4.1951 10.334-4.6966 0.62329-1.8699-15.591-22.119-26.233-32.761-36.158-36.158-84.372-57.848-133.77-60.18l-12.75-0.60173v-42.698l5.25 8.3577e-4c2.8875 4.5967e-4 10.163 0.46676 16.169 1.0362 7.6327 0.72379 11.115 0.71826 11.57-0.018386 0.43568-0.70495 8.9978-0.96521 25.866-0.78622l25.214 0.26755-3.6999 5.2843c-2.1056 3.0073-3.3053 5.6194-2.7841 6.0621 0.50366 0.4278 4.9657 2.2714 9.9157 4.0969s13.21 5.2767 18.356 7.6694l9.3565 4.3503 2.6435-3.1319c9.3443-11.071 17.433-19.814 20.479-22.138l3.5309-2.6931h216.42l4.3398 3.5561c2.3869 1.9559 7.6082 7.4347 11.603 12.175 11.62 13.79 9.2254 12.847 19.967 7.8534 5.1131-2.3773 13.347-5.8159 18.297-7.6414s9.4121-3.6691 9.9158-4.0969c0.52116-0.44266-0.6785-3.0548-2.7841-6.0621l-3.6999-5.2843 25.214-0.26755c16.868-0.17898 25.43 0.081276 25.866 0.78622 0.45527 0.73665 3.9371 0.74218 11.57 0.018385 6.0052-0.56946 13.281-1.0358 16.169-1.0362l5.25-8.3577e-4v43h-7.8136c-4.2975 0-12.87 0.66685-19.049 1.4819-45.689 6.0261-87.029 26.412-119.66 59.009-10.634 10.623-26.857 30.877-26.233 32.75 0.16718 0.50154 4.8176 2.615 10.334 4.6966 5.5167 2.0816 13.99 5.6402 18.829 7.9079l8.7986 4.1232 2.3115-2.734c11.43-13.519 17.094-19.429 24.898-25.979 27.574-23.142 58.687-36.101 94.082-39.188 6.6-0.57554 12.338-1.0511 12.75-1.0568 0.4125-0.0057 0.75 9.349 0.75 20.788v20.798l-11.25 1.1507c-25.478 2.6061-46.773 11.281-66.895 27.252-8.3387 6.6185-19.855 19-19.855 21.346 0 0.71219 2.8125 3.5516 6.25 6.3098s9.9128 8.464 14.39 12.679 8.4494 7.6645 8.8281 7.6645 4.0664-3.5907 8.1949-7.9794c14.844-15.779 32.019-24.185 54.087-26.472l6.25-0.64765v41.886l-6.0828 1.0715c-13.21 2.3269-24.343 10.304-29.899 21.422-3.6626 7.3295-3.7128 8.6598-0.51815 13.72 1.375 2.1781 2.5 4.1942 2.5 4.4801s-11.383 0.51987-25.295 0.51987h-25.295l-3.9555-5.2416c-6.666-8.8334-25.388-26.876-36.455-35.133-27.234-20.318-54.745-32.362-88.5-38.744-14.143-2.6739-44.244-3.656-59.351-1.9363-47.122 5.3639-90.318 26.169-123.65 59.554-6.05 6.0598-12.78 13.377-14.955 16.259l-3.9555 5.2416h-25.295c-13.912 0-25.295-0.23394-25.295-0.51987zm216-123.98c9.625 0 20.766 0.34096 24.758 0.75768l7.2575 0.75768 3.4925-5.4596c1.9209-3.0028 3.4925-6.3094 3.4925-7.348 0-3.7214-6.1087-14.036-11.05-18.658-15.831-14.808-40.069-14.808-55.9 0-4.9414 4.6221-11.05 14.936-11.05 18.658 0 1.0386 1.5716 4.3452 3.4925 7.348l3.4925 5.4596 7.2575-0.75768c3.9916-0.41672 15.133-0.75768 24.758-0.75768zm-58.348-58.25c6.674-6.6079 12.265-11.102 17.348-13.944 20.708-11.581 45.002-14.013 66.961-6.7039 12.606 4.1962 21.491 9.861 32.387 20.648 5.4162 5.3625 10.078 9.75 10.36 9.75s4.1757-3.449 8.6524-7.6645 10.952-9.9212 14.39-12.679 6.25-5.5976 6.25-6.3098c0-2.3464-11.516-14.728-19.855-21.346-20.157-15.999-41.489-24.677-66.895-27.214-31.625-3.1582-63.263 6.4734-89.395 27.214-8.389 6.6584-19.855 19.004-19.855 21.378 0 0.72974 2.5875 3.3655 5.75 5.8571 3.1625 2.4917 9.575 8.1623 14.25 12.601 4.675 4.4391 8.7936 8.0919 9.1524 8.1172 0.35884 0.02533 5.0838-4.3414 10.5-9.7039zm-46.652 179.7c6.4721-5.5385 21.34-15.104 31.054-19.978 46.392-23.28 101.5-23.28 147.89 0 9.9235 4.9798 24.882 14.573 31.054 19.916l3.5 3.0297-108.5 0.0137-108.5 0.0137 3.5-2.9951z" fill="#62d1e9"/>
  </g>
  <g transform="matrix(.2 0 0 .2 400 200)">
   <path d="m34 249.48c0-0.28593 1.125-2.302 2.5-4.4801 3.1947-5.0607 3.1444-6.391-0.51816-13.72-5.5559-11.118-16.689-19.095-29.899-21.422l-6.0829-1.0715v-41.886l6.25 0.64765c22.068 2.2868 39.243 10.693 54.087 26.472 4.1285 4.3886 7.8162 7.9794 8.1949 7.9794 0.37867 0 4.3513-3.449 8.8281-7.6645s10.952-9.9212 14.39-12.679c3.4375-2.7582 6.25-5.5976 6.25-6.3098 0-2.3464-11.517-14.728-19.855-21.346-20.122-15.971-41.417-24.646-66.895-27.252l-11.25-1.1507v-20.798c0-11.439 0.3375-20.794 0.75-20.788 6.3826 0.0878 26.943 2.5768 34.158 4.1352 34.678 7.4898 68.987 27.946 90.526 53.974 3.8141 4.609 7.5547 8.9002 8.3124 9.5359 1.0751 0.90199 3.2738 0.26738 10.01-2.8892 4.7476-2.2248 13.146-5.7482 18.662-7.8298 5.5166-2.0816 10.167-4.1951 10.334-4.6966 0.62329-1.8699-15.591-22.119-26.233-32.761-36.158-36.158-84.372-57.848-133.77-60.18l-12.75-0.60173v-42.698l5.25 8.3577e-4c2.8875 4.5967e-4 10.163 0.46676 16.169 1.0362 7.6327 0.72379 11.115 0.71826 11.57-0.018386 0.43568-0.70495 8.9978-0.96521 25.866-0.78622l25.214 0.26755-3.6999 5.2843c-2.1056 3.0073-3.3053 5.6194-2.7841 6.0621 0.50366 0.4278 4.9657 2.2714 9.9157 4.0969s13.21 5.2767 18.356 7.6694l9.3565 4.3503 2.6435-3.1319c9.3443-11.071 17.433-19.814 20.479-22.138l3.5309-2.6931h216.42l4.3398 3.5561c2.3869 1.9559 7.6082 7.4347 11.603 12.175 11.62 13.79 9.2254 12.847 19.967 7.8534 5.1131-2.3773 13.347-5.8159 18.297-7.6414s9.4121-3.6691 9.9158-4.0969c0.52116-0.44266-0.6785-3.0548-2.7841-6.0621l-3.6999-5.2843 25.214-0.26755c16.868-0.17898 25.43 0.081276 25.866 0.78622 0.45527 0.73665 3.9371 0.74218 11.57 0.018385 6.0052-0.56946 13.281-1.0358 16.169-1.0362l5.25-8.3577e-4v43h-7.8136c-4.2975 0-12.87 0.66685-19.049 1.4819-45.689 6.0261-87.029 26.412-119.66 59.009-10.634 10.623-26.857 30.877-26.233 32.75 0.16718 0.50154 4.8176 2.615 10.334 4.6966 5.5167 2.0816 13.99 5.6402 18.829 7.9079l8.7986 4.1232 2.3115-2.734c11.43-13.519 17.094-19.429 24.898-25.979 27.574-23.142 58.687-36.101 94.082-39.188 6.6-0.57554 12.338-1.0511 12.75-1.0568 0.4125-0.0057 0.75 9.349 0.75 20.788v20.798l-11.25 1.1507c-25.478 2.6061-46.773 11.281-66.895 27.252-8.3387 6.6185-19.855 19-19.855 21.346 0 0.71219 2.8125 3.5516 6.25 6.3098s9.9128 8.464 14.39 12.679 8.4494 7.6645 8.8281 7.6645 4.0664-3.5907 8.1949-7.9794c14.844-15.779 32.019-24.185 54.087-26.472l6.25-0.64765v41.886l-6.0828 1.0715c-13.21 2.3269-24.343 10.304-29.899 21.422-3.6626 7.3295-3.7128 8.6598-0.51815 13.72 1.375 2.1781 2.5 4.1942 2.5 4.4801s-11.383 0.51987-25.295 0.51987h-25.295l-3.9555-5.2416c-6.666-8.8334-25.388-26.876-36.455-35.133-27.234-20.318-54.745-32.362-88.5-38.744-14.143-2.6739-44.244-3.656-59.351-1.9363-47.122 5.3639-90.318 26.169-123.65 59.554-6.05 6.0598-12.78 13.377-14.955 16.259l-3.9555 5.2416h-25.295c-13.912 0-25.295-0.23394-25.295-0.51987zm216-123.98c9.625 0 20.766 0.34096 24.758 0.75768l7.2575 0.75768 3.4925-5.4596c1.9209-3.0028 3.4925-6.3094 3.4925-7.348 0-3.7214-6.1087-14.036-11.05-18.658-15.831-14.808-40.069-14.808-55.9 0-4.9414 4.6221-11.05 14.936-11.05 18.658 0 1.0386 1.5716 4.3452 3.4925 7.348l3.4925 5.4596 7.2575-0.75768c3.9916-0.41672 15.133-0.75768 24.758-0.75768zm-58.348-58.25c6.674-6.6079 12.265-11.102 17.348-13.944 20.708-11.581 45.002-14.013 66.961-6.7039 12.606 4.1962 21.491 9.861 32.387 20.648 5.4162 5.3625 10.078 9.75 10.36 9.75s4.1757-3.449 8.6524-7.6645 10.952-9.9212 14.39-12.679 6.25-5.5976 6.25-6.3098c0-2.3464-11.516-14.728-19.855-21.346-20.157-15.999-41.489-24.677-66.895-27.214-31.625-3.1582-63.263 6.4734-89.395 27.214-8.389 6.6584-19.855 19.004-19.855 21.378 0 0.72974 2.5875 3.3655 5.75 5.8571 3.1625 2.4917 9.575 8.1623 14.25 12.601 4.675 4.4391 8.7936 8.0919 9.1524 8.1172 0.35884 0.02533 5.0838-4.3414 10.5-9.7039zm-46.652 179.7c6.4721-5.5385 21.34-15.104 31.054-19.978 46.392-23.28 101.5-23.28 147.89 0 9.9235 4.9798 24.882 14.573 31.054 19.916l3.5 3.0297-108.5 0.0137-108.5 0.0137 3.5-2.9951z" fill="#62d1e9"/>
  </g>
 </g>
 <g transform="translate(0,-100)">
  <g transform="matrix(.2 0 0 .2 0 200)">
   <path d="m34 249.48c0-0.28593 1.125-2.302 2.5-4.4801 3.1947-5.0607 3.1444-6.391-0.51816-13.72-5.5559-11.118-16.689-19.095-29.899-21.422l-6.0829-1.0715v-41.886l6.25 0.64765c22.068 2.2868 39.243 10.693 54.087 26.472 4.1285 4.3886 7.8162 7.9794 8.1949 7.9794 0.37867 0 4.3513-3.449 8.8281-7.6645s10.952-9.9212 14.39-12.679c3.4375-2.7582 6.25-5.5976 6.25-6.3098 0-2.3464-11.517-14.728-19.855-21.346-20.122-15.971-41.417-24.646-66.895-27.252l-11.25-1.1507v-20.798c0-11.439 0.3375-20.794 0.75-20.788 6.3826 0.0878 26.943 2.5768 34.158 4.1352 34.678 7.4898 68.987 27.946 90.526 53.974 3.8141 4.609 7.5547 8.9002 8.3124 9.5359 1.0751 0.90199 3.2738 0.26738 10.01-2.8892 4.7476-2.2248 13.146-5.7482 18.662-7.8298 5.5166-2.0816 10.167-4.1951 10.334-4.6966 0.62329-1.8699-15.591-22.119-26.233-32.761-36.158-36.158-84.372-57.848-133.77-60.18l-12.75-0.60173v-42.698l5.25 8.3577e-4c2.8875 4.5967e-4 10.163 0.46676 16.169 1.0362 7.6327 0.72379 11.115 0.71826 11.57-0.018386 0.43568-0.70495 8.9978-0.96521 25.866-0.78622l25.214 0.26755-3.6999 5.2843c-2.1056 3.0073-3.3053 5.6194-2.7841 6.0621 0.50366 0.4278 4.9657 2.2714 9.9157 4.0969s13.21 5.2767 18.356 7.6694l9.3565 4.3503 2.6435-3.1319c9.3443-11.071 17.433-19.814 20.479-22.138l3.5309-2.6931h216.42l4.3398 3.5561c2.3869 1.9559 7.6082 7.4347 11.603 12.175 11.62 13.79 9.2254 12.847 19.967 7.8534 5.1131-2.3773 13.347-5.8159 18.297-7.6414s9.4121-3.6691 9.9158-4.0969c0.52116-0.44266-0.6785-3.0548-2.7841-6.0621l-3.6999-5.2843 25.214-0.26755c16.868-0.17898 25.43 0.081276 25.866 0.78622 0.45527 0.73665 3.9371 0.74218 11.57 0.018385 6.0052-0.56946 13.281-1.0358 16.169-1.0362l5.25-8.3577e-4v43h-7.8136c-4.2975 0-12.87 0.66685-19.049 1.4819-45.689 6.0261-87.029 26.412-119.66 59.009-10.634 10.623-26.857 30.877-26.233 32.75 0.16718 0.50154 4.8176 2.615 10.334 4.6966 5.5167 2.0816 13.99 5.6402 18.829 7.9079l8.7986 4.1232 2.3115-2.734c11.43-13.519 17.094-19.429 24.898-25.979 27.574-23.142 58.687-36.101 94.082-39.188 6.6-0.57554 12.338-1.0511 12.75-1.0568 0.4125-0.0057 0.75 9.349 0.75 20.788v20.798l-11.25 1.1507c-25.478 2.6061-46.773 11.281-66.895 27.252-8.3387 6.6185-19.855 19-19.855 21.346 0 0.71219 2.8125 3.5516 6.25 6.3098s9.9128 8.464 14.39 12.679 8.4494 7.6645 8.8281 7.6645 4.0664-3.5907 8.1949-7.9794c14.844-15.779 32.019-24.185 54.087-26.472l6.25-0.64765v41.886l-6.0828 1.0715c-13.21 2.3269-24.343 10.304-29.899 21.422-3.6626 7.3295-3.7128 8.6598-0.51815 13.72 1.375 2.1781 2.5 4.1942 2.5 4.4801s-11.383 0.51987-25.295 0.51987h-25.295l-3.9555-5.2416c-6.666-8.8334-25.388-26.876-36.455-35.133-27.234-20.318-54.745-32.362-88.5-38.744-14.143-2.6739-44.244-3.656-59.351-1.9363-47.122 5.3639-90.318 26.169-123.65 59.554-6.05 6.0598-12.78 13.377-14.955 16.259l-3.9555 5.2416h-25.295c-13.912 0-25.295-0.23394-25.295-0.51987zm216-123.98c9.625 0 20.766 0.34096 24.758 0.75768l7.2575 0.75768 3.4925-5.4596c1.9209-3.0028 3.4925-6.3094 3.4925-7.348 0-3.7214-6.1087-14.036-11.05-18.658-15.831-14.808-40.069-14.808-55.9 0-4.9414 4.6221-11.05 14.936-11.05 18.658 0 1.0386 1.5716 4.3452 3.4925 7.348l3.4925 5.4596 7.2575-0.75768c3.9916-0.41672 15.133-0.75768 24.758-0.75768zm-58.348-58.25c6.674-6.6079 12.265-11.102 17.348-13.944 20.708-11.581 45.002-14.013 66.961-6.7039 12.606 4.1962 21.491 9.861 32.387 20.648 5.4162 5.3625 10.078 9.75 10.36 9.75s4.1757-3.449 8.6524-7.6645 10.952-9.9212 14.39-12.679 6.25-5.5976 6.25-6.3098c0-2.3464-11.516-14.728-19.855-21.346-20.157-15.999-41.489-24.677-66.895-27.214-31.625-3.1582-63.263 6.4734-89.395 27.214-8.389 6.6584-19.855 19.004-19.855 21.378 0 0.72974 2.5875 3.3655 5.75 5.8571 3.1625 2.4917 9.575 8.1623 14.25 12.601 4.675 4.4391 8.7936 8.0919 9.1524 8.1172 0.35884 0.02533 5.0838-4.3414 10.5-9.7039zm-46.652 179.7c6.4721-5.5385 21.34-15.104 31.054-19.978 46.392-23.28 101.5-23.28 147.89 0 9.9235 4.9798 24.882 14.573 31.054 19.916l3.5 3.0297-108.5 0.0137-108.5 0.0137 3.5-2.9951z" fill="#62d1e9"/>
  </g>
  <g transform="matrix(.2 0 0 .2 100 200)">
   <path d="m34 249.48c0-0.28593 1.125-2.302 2.5-4.4801 3.1947-5.0607 3.1444-6.391-0.51816-13.72-5.5559-11.118-16.689-19.095-29.899-21.422l-6.0829-1.0715v-41.886l6.25 0.64765c22.068 2.2868 39.243 10.693 54.087 26.472 4.1285 4.3886 7.8162 7.9794 8.1949 7.9794 0.37867 0 4.3513-3.449 8.8281-7.6645s10.952-9.9212 14.39-12.679c3.4375-2.7582 6.25-5.5976 6.25-6.3098 0-2.3464-11.517-14.728-19.855-21.346-20.122-15.971-41.417-24.646-66.895-27.252l-11.25-1.1507v-20.798c0-11.439 0.3375-20.794 0.75-20.788 6.3826 0.0878 26.943 2.5768 34.158 4.1352 34.678 7.4898 68.987 27.946 90.526 53.974 3.8141 4.609 7.5547 8.9002 8.3124 9.5359 1.0751 0.90199 3.2738 0.26738 10.01-2.8892 4.7476-2.2248 13.146-5.7482 18.662-7.8298 5.5166-2.0816 10.167-4.1951 10.334-4.6966 0.62329-1.8699-15.591-22.119-26.233-32.761-36.158-36.158-84.372-57.848-133.77-60.18l-12.75-0.60173v-42.698l5.25 8.3577e-4c2.8875 4.5967e-4 10.163 0.46676 16.169 1.0362 7.6327 0.72379 11.115 0.71826 11.57-0.018386 0.43568-0.70495 8.9978-0.96521 25.866-0.78622l25.214 0.26755-3.6999 5.2843c-2.1056 3.0073-3.3053 5.6194-2.7841 6.0621 0.50366 0.4278 4.9657 2.2714 9.9157 4.0969s13.21 5.2767 18.356 7.6694l9.3565 4.3503 2.6435-3.1319c9.3443-11.071 17.433-19.814 20.479-22.138l3.5309-2.6931h216.42l4.3398 3.5561c2.3869 1.9559 7.6082 7.4347 11.603 12.175 11.62 13.79 9.2254 12.847 19.967 7.8534 5.1131-2.3773 13.347-5.8159 18.297-7.6414s9.4121-3.6691 9.9158-4.0969c0.52116-0.44266-0.6785-3.0548-2.7841-6.0621l-3.6999-5.2843 25.214-0.26755c16.868-0.17898 25.43 0.081276 25.866 0.78622 0.45527 0.73665 3.9371 0.74218 11.57 0.018385 6.0052-0.56946 13.281-1.0358 16.169-1.0362l5.25-8.3577e-4v43h-7.8136c-4.2975 0-12.87 0.66685-19.049 1.4819-45.689 6.0261-87.029 26.412-119.66 59.009-10.634 10.623-26.857 30.877-26.233 32.75 0.16718 0.50154 4.8176 2.615 10.334 4.6966 5.5167 2.0816 13.99 5.6402 18.829 7.9079l8.7986 4.1232 2.3115-2.734c11.43-13.519 17.094-19.429 24.898-25.979 27.574-23.142 58.687-36.101 94.082-39.188 6.6-0.57554 12.338-1.0511 12.75-1.0568 0.4125-0.0057 0.75 9.349 0.75 20.788v20.798l-11.25 1.1507c-25.478 2.6061-46.773 11.281-66.895 27.252-8.3387 6.6185-19.855 19-19.855 21.346 0 0.71219 2.8125 3.5516 6.25 6.3098s9.9128 8.464 14.39 12.679 8.4494 7.6645 8.8281 7.6645 4.0664-3.5907 8.1949-7.9794c14.844-15.779 32.019-24.185 54.087-26.472l6.25-0.64765v41.886l-6.0828 1.0715c-13.21 2.3269-24.343 10.304-29.899 21.422-3.6626 7.3295-3.7128 8.6598-0.51815 13.72 1.375 2.1781 2.5 4.1942 2.5 4.4801s-11.383 0.51987-25.295 0.51987h-25.295l-3.9555-5.2416c-6.666-8.8334-25.388-26.876-36.455-35.133-27.234-20.318-54.745-32.362-88.5-38.744-14.143-2.6739-44.244-3.656-59.351-1.9363-47.122 5.3639-90.318 26.169-123.65 59.554-6.05 6.0598-12.78 13.377-14.955 16.259l-3.9555 5.2416h-25.295c-13.912 0-25.295-0.23394-25.295-0.51987zm216-123.98c9.625 0 20.766 0.34096 24.758 0.75768l7.2575 0.75768 3.4925-5.4596c1.9209-3.0028 3.4925-6.3094 3.4925-7.348 0-3.7214-6.1087-14.036-11.05-18.658-15.831-14.808-40.069-14.808-55.9 0-4.9414 4.6221-11.05 14.936-11.05 18.658 0 1.0386 1.5716 4.3452 3.4925 7.348l3.4925 5.4596 7.2575-0.75768c3.9916-0.41672 15.133-0.75768 24.758-0.75768zm-58.348-58.25c6.674-6.6079 12.265-11.102 17.348-13.944 20.708-11.581 45.002-14.013 66.961-6.7039 12.606 4.1962 21.491 9.861 32.387 20.648 5.4162 5.3625 10.078 9.75 10.36 9.75s4.1757-3.449 8.6524-7.6645 10.952-9.9212 14.39-12.679 6.25-5.5976 6.25-6.3098c0-2.3464-11.516-14.728-19.855-21.346-20.157-15.999-41.489-24.677-66.895-27.214-31.625-3.1582-63.263 6.4734-89.395 27.214-8.389 6.6584-19.855 19.004-19.855 21.378 0 0.72974 2.5875 3.3655 5.75 5.8571 3.1625 2.4917 9.575 8.1623 14.25 12.601 4.675 4.4391 8.7936 8.0919 9.1524 8.1172 0.35884 0.02533 5.0838-4.3414 10.5-9.7039zm-46.652 179.7c6.4721-5.5385 21.34-15.104 31.054-19.978 46.392-23.28 101.5-23.28 147.89 0 9.9235 4.9798 24.882 14.573 31.054 19.916l3.5 3.0297-108.5 0.0137-108.5 0.0137 3.5-2.9951z" fill="#62d1e9"/>
  </g>
  <g transform="matrix(.2 0 0 .2 200 200)">
   <path d="m34 249.48c0-0.28593 1.125-2.302 2.5-4.4801 3.1947-5.0607 3.1444-6.391-0.51816-13.72-5.5559-11.118-16.689-19.095-29.899-21.422l-6.0829-1.0715v-41.886l6.25 0.64765c22.068 2.2868 39.243 10.693 54.087 26.472 4.1285 4.3886 7.8162 7.9794 8.1949 7.9794 0.37867 0 4.3513-3.449 8.8281-7.6645s10.952-9.9212 14.39-12.679c3.4375-2.7582 6.25-5.5976 6.25-6.3098 0-2.3464-11.517-14.728-19.855-21.346-20.122-15.971-41.417-24.646-66.895-27.252l-11.25-1.1507v-20.798c0-11.439 0.3375-20.794 0.75-20.788 6.3826 0.0878 26.943 2.5768 34.158 4.1352 34.678 7.4898 68.987 27.946 90.526 53.974 3.8141 4.609 7.5547 8.9002 8.3124 9.5359 1.0751 0.90199 3.2738 0.26738 10.01-2.8892 4.7476-2.2248 13.146-5.7482 18.662-7.8298 5.5166-2.0816 10.167-4.1951 10.334-4.6966 0.62329-1.8699-15.591-22.119-26.233-32.761-36.158-36.158-84.372-57.848-133.77-60.18l-12.75-0.60173v-42.698l5.25 8.3577e-4c2.8875 4.5967e-4 10.163 0.46676 16.169 1.0362 7.6327 0.72379 11.115 0.71826 11.57-0.018386 0.43568-0.70495 8.9978-0.96521 25.866-0.78622l25.214 0.26755-3.6999 5.2843c-2.1056 3.0073-3.3053 5.6194-2.7841 6.0621 0.50366 0.4278 4.9657 2.2714 9.9157 4.0969s13.21 5.2767 18.356 7.6694l9.3565 4.3503 2.6435-3.1319c9.3443-11.071 17.433-19.814 20.479-22.138l3.5309-2.6931h216.42l4.3398 3.5561c2.3869 1.9559 7.6082 7.4347 11.603 12.175 11.62 13.79 9.2254 12.847 19.967 7.8534 5.1131-2.3773 13.347-5.8159 18.297-7.6414s9.4121-3.6691 9.9158-4.0969c0.52116-0.44266-0.6785-3.0548-2.7841-6.0621l-3.6999-5.2843 25.214-0.26755c16.868-0.17898 25.43 0.081276 25.866 0.78622 0.45527 0.73665 3.9371 0.74218 11.57 0.018385 6.0052-0.56946 13.281-1.0358 16.169-1.0362l5.25-8.3577e-4v43h-7.8136c-4.2975 0-12.87 0.66685-19.049 1.4819-45.689 6.0261-87.029 26.412-119.66 59.009-10.634 10.623-26.857 30.877-26.233 32.75 0.16718 0.50154 4.8176 2.615 10.334 4.6966 5.5167 2.0816 13.99 5.6402 18.829 7.9079l8.7986 4.1232 2.3115-2.734c11.43-13.519 17.094-19.429 24.898-25.979 27.574-23.142 58.687-36.101 94.082-39.188 6.6-0.57554 12.338-1.0511 12.75-1.0568 0.4125-0.0057 0.75 9.349 0.75 20.788v20.798l-11.25 1.1507c-25.478 2.6061-46.773 11.281-66.895 27.252-8.3387 6.6185-19.855 19-19.855 21.346 0 0.71219 2.8125 3.5516 6.25 6.3098s9.9128 8.464 14.39 12.679 8.4494 7.6645 8.8281 7.6645 4.0664-3.5907 8.1949-7.9794c14.844-15.779 32.019-24.185 54.087-26.472l6.25-0.64765v41.886l-6.0828 1.0715c-13.21 2.3269-24.343 10.304-29.899 21.422-3.6626 7.3295-3.7128 8.6598-0.51815 13.72 1.375 2.1781 2.5 4.1942 2.5 4.4801s-11.383 0.51987-25.295 0.51987h-25.295l-3.9555-5.2416c-6.666-8.8334-25.388-26.876-36.455-35.133-27.234-20.318-54.745-32.362-88.5-38.744-14.143-2.6739-44.244-3.656-59.351-1.9363-47.122 5.3639-90.318 26.169-123.65 59.554-6.05 6.0598-12.78 13.377-14.955 16.259l-3.9555 5.2416h-25.295c-13.912 0-25.295-0.23394-25.295-0.51987zm216-123.98c9.625 0 20.766 0.34096 24.758 0.75768l7.2575 0.75768 3.4925-5.4596c1.9209-3.0028 3.4925-6.3094 3.4925-7.348 0-3.7214-6.1087-14.036-11.05-18.658-15.831-14.808-40.069-14.808-55.9 0-4.9414 4.6221-11.05 14.936-11.05 18.658 0 1.0386 1.5716 4.3452 3.4925 7.348l3.4925 5.4596 7.2575-0.75768c3.9916-0.41672 15.133-0.75768 24.758-0.75768zm-58.348-58.25c6.674-6.6079 12.265-11.102 17.348-13.944 20.708-11.581 45.002-14.013 66.961-6.7039 12.606 4.1962 21.491 9.861 32.387 20.648 5.4162 5.3625 10.078 9.75 10.36 9.75s4.1757-3.449 8.6524-7.6645 10.952-9.9212 14.39-12.679 6.25-5.5976 6.25-6.3098c0-2.3464-11.516-14.728-19.855-21.346-20.157-15.999-41.489-24.677-66.895-27.214-31.625-3.1582-63.263 6.4734-89.395 27.214-8.389 6.6584-19.855 19.004-19.855 21.378 0 0.72974 2.5875 3.3655 5.75 5.8571 3.1625 2.4917 9.575 8.1623 14.25 12.601 4.675 4.4391 8.7936 8.0919 9.1524 8.1172 0.35884 0.02533 5.0838-4.3414 10.5-9.7039zm-46.652 179.7c6.4721-5.5385 21.34-15.104 31.054-19.978 46.392-23.28 101.5-23.28 147.89 0 9.9235 4.9798 24.882 14.573 31.054 19.916l3.5 3.0297-108.5 0.0137-108.5 0.0137 3.5-2.9951z" fill="#62d1e9"/>
  </g>
  <g transform="matrix(.2 0 0 .2 300 200)">
   <path d="m34 249.48c0-0.28593 1.125-2.302 2.5-4.4801 3.1947-5.0607 3.1444-6.391-0.51816-13.72-5.5559-11.118-16.689-19.095-29.899-21.422l-6.0829-1.0715v-41.886l6.25 0.64765c22.068 2.2868 39.243 10.693 54.087 26.472 4.1285 4.3886 7.8162 7.9794 8.1949 7.9794 0.37867 0 4.3513-3.449 8.8281-7.6645s10.952-9.9212 14.39-12.679c3.4375-2.7582 6.25-5.5976 6.25-6.3098 0-2.3464-11.517-14.728-19.855-21.346-20.122-15.971-41.417-24.646-66.895-27.252l-11.25-1.1507v-20.798c0-11.439 0.3375-20.794 0.75-20.788 6.3826 0.0878 26.943 2.5768 34.158 4.1352 34.678 7.4898 68.987 27.946 90.526 53.974 3.8141 4.609 7.5547 8.9002 8.3124 9.5359 1.0751 0.90199 3.2738 0.26738 10.01-2.8892 4.7476-2.2248 13.146-5.7482 18.662-7.8298 5.5166-2.0816 10.167-4.1951 10.334-4.6966 0.62329-1.8699-15.591-22.119-26.233-32.761-36.158-36.158-84.372-57.848-133.77-60.18l-12.75-0.60173v-42.698l5.25 8.3577e-4c2.8875 4.5967e-4 10.163 0.46676 16.169 1.0362 7.6327 0.72379 11.115 0.71826 11.57-0.018386 0.43568-0.70495 8.9978-0.96521 25.866-0.78622l25.214 0.26755-3.6999 5.2843c-2.1056 3.0073-3.3053 5.6194-2.7841 6.0621 0.50366 0.4278 4.9657 2.2714 9.9157 4.0969s13.21 5.2767 18.356 7.6694l9.3565 4.3503 2.6435-3.1319c9.3443-11.071 17.433-19.814 20.479-22.138l3.5309-2.6931h216.42l4.3398 3.5561c2.3869 1.9559 7.6082 7.4347 11.603 12.175 11.62 13.79 9.2254 12.847 19.967 7.8534 5.1131-2.3773 13.347-5.8159 18.297-7.6414s9.4121-3.6691 9.9158-4.0969c0.52116-0.44266-0.6785-3.0548-2.7841-6.0621l-3.6999-5.2843 25.214-0.26755c16.868-0.17898 25.43 0.081276 25.866 0.78622 0.45527 0.73665 3.9371 0.74218 11.57 0.018385 6.0052-0.56946 13.281-1.0358 16.169-1.0362l5.25-8.3577e-4v43h-7.8136c-4.2975 0-12.87 0.66685-19.049 1.4819-45.689 6.0261-87.029 26.412-119.66 59.009-10.634 10.623-26.857 30.877-26.233 32.75 0.16718 0.50154 4.8176 2.615 10.334 4.6966 5.5167 2.0816 13.99 5.6402 18.829 7.9079l8.7986 4.1232 2.3115-2.734c11.43-13.519 17.094-19.429 24.898-25.979 27.574-23.142 58.687-36.101 94.082-39.188 6.6-0.57554 12.338-1.0511 12.75-1.0568 0.4125-0.0057 0.75 9.349 0.75 20.788v20.798l-11.25 1.1507c-25.478 2.6061-46.773 11.281-66.895 27.252-8.3387 6.6185-19.855 19-19.855 21.346 0 0.71219 2.8125 3.5516 6.25 6.3098s9.9128 8.464 14.39 12.679 8.4494 7.6645 8.8281 7.6645 4.0664-3.5907 8.1949-7.9794c14.844-15.779 32.019-24.185 54.087-26.472l6.25-0.64765v41.886l-6.0828 1.0715c-13.21 2.3269-24.343 10.304-29.899 21.422-3.6626 7.3295-3.7128 8.6598-0.51815 13.72 1.375 2.1781 2.5 4.1942 2.5 4.4801s-11.383 0.51987-25.295 0.51987h-25.295l-3.9555-5.2416c-6.666-8.8334-25.388-26.876-36.455-35.133-27.234-20.318-54.745-32.362-88.5-38.744-14.143-2.6739-44.244-3.656-59.351-1.9363-47.122 5.3639-90.318 26.169-123.65 59.554-6.05 6.0598-12.78 13.377-14.955 16.259l-3.9555 5.2416h-25.295c-13.912 0-25.295-0.23394-25.295-0.51987zm216-123.98c9.625 0 20.766 0.34096 24.758 0.75768l7.2575 0.75768 3.4925-5.4596c1.9209-3.0028 3.4925-6.3094 3.4925-7.348 0-3.7214-6.1087-14.036-11.05-18.658-15.831-14.808-40.069-14.808-55.9 0-4.9414 4.6221-11.05 14.936-11.05 18.658 0 1.0386 1.5716 4.3452 3.4925 7.348l3.4925 5.4596 7.2575-0.75768c3.9916-0.41672 15.133-0.75768 24.758-0.75768zm-58.348-58.25c6.674-6.6079 12.265-11.102 17.348-13.944 20.708-11.581 45.002-14.013 66.961-6.7039 12.606 4.1962 21.491 9.861 32.387 20.648 5.4162 5.3625 10.078 9.75 10.36 9.75s4.1757-3.449 8.6524-7.6645 10.952-9.9212 14.39-12.679 6.25-5.5976 6.25-6.3098c0-2.3464-11.516-14.728-19.855-21.346-20.157-15.999-41.489-24.677-66.895-27.214-31.625-3.1582-63.263 6.4734-89.395 27.214-8.389 6.6584-19.855 19.004-19.855 21.378 0 0.72974 2.5875 3.3655 5.75 5.8571 3.1625 2.4917 9.575 8.1623 14.25 12.601 4.675 4.4391 8.7936 8.0919 9.1524 8.1172 0.35884 0.02533 5.0838-4.3414 10.5-9.7039zm-46.652 179.7c6.4721-5.5385 21.34-15.104 31.054-19.978 46.392-23.28 101.5-23.28 147.89 0 9.9235 4.9798 24.882 14.573 31.054 19.916l3.5 3.0297-108.5 0.0137-108.5 0.0137 3.5-2.9951z" fill="#62d1e9"/>
  </g>
  <g transform="matrix(.2 0 0 .2 400 200)">
   <path d="m34 249.48c0-0.28593 1.125-2.302 2.5-4.4801 3.1947-5.0607 3.1444-6.391-0.51816-13.72-5.5559-11.118-16.689-19.095-29.899-21.422l-6.0829-1.0715v-41.886l6.25 0.64765c22.068 2.2868 39.243 10.693 54.087 26.472 4.1285 4.3886 7.8162 7.9794 8.1949 7.9794 0.37867 0 4.3513-3.449 8.8281-7.6645s10.952-9.9212 14.39-12.679c3.4375-2.7582 6.25-5.5976 6.25-6.3098 0-2.3464-11.517-14.728-19.855-21.346-20.122-15.971-41.417-24.646-66.895-27.252l-11.25-1.1507v-20.798c0-11.439 0.3375-20.794 0.75-20.788 6.3826 0.0878 26.943 2.5768 34.158 4.1352 34.678 7.4898 68.987 27.946 90.526 53.974 3.8141 4.609 7.5547 8.9002 8.3124 9.5359 1.0751 0.90199 3.2738 0.26738 10.01-2.8892 4.7476-2.2248 13.146-5.7482 18.662-7.8298 5.5166-2.0816 10.167-4.1951 10.334-4.6966 0.62329-1.8699-15.591-22.119-26.233-32.761-36.158-36.158-84.372-57.848-133.77-60.18l-12.75-0.60173v-42.698l5.25 8.3577e-4c2.8875 4.5967e-4 10.163 0.46676 16.169 1.0362 7.6327 0.72379 11.115 0.71826 11.57-0.018386 0.43568-0.70495 8.9978-0.96521 25.866-0.78622l25.214 0.26755-3.6999 5.2843c-2.1056 3.0073-3.3053 5.6194-2.7841 6.0621 0.50366 0.4278 4.9657 2.2714 9.9157 4.0969s13.21 5.2767 18.356 7.6694l9.3565 4.3503 2.6435-3.1319c9.3443-11.071 17.433-19.814 20.479-22.138l3.5309-2.6931h216.42l4.3398 3.5561c2.3869 1.9559 7.6082 7.4347 11.603 12.175 11.62 13.79 9.2254 12.847 19.967 7.8534 5.1131-2.3773 13.347-5.8159 18.297-7.6414s9.4121-3.6691 9.9158-4.0969c0.52116-0.44266-0.6785-3.0548-2.7841-6.0621l-3.6999-5.2843 25.214-0.26755c16.868-0.17898 25.43 0.081276 25.866 0.78622 0.45527 0.73665 3.9371 0.74218 11.57 0.018385 6.0052-0.56946 13.281-1.0358 16.169-1.0362l5.25-8.3577e-4v43h-7.8136c-4.2975 0-12.87 0.66685-19.049 1.4819-45.689 6.0261-87.029 26.412-119.66 59.009-10.634 10.623-26.857 30.877-26.233 32.75 0.16718 0.50154 4.8176 2.615 10.334 4.6966 5.5167 2.0816 13.99 5.6402 18.829 7.9079l8.7986 4.1232 2.3115-2.734c11.43-13.519 17.094-19.429 24.898-25.979 27.574-23.142 58.687-36.101 94.082-39.188 6.6-0.57554 12.338-1.0511 12.75-1.0568 0.4125-0.0057 0.75 9.349 0.75 20.788v20.798l-11.25 1.1507c-25.478 2.6061-46.773 11.281-66.895 27.252-8.3387 6.6185-19.855 19-19.855 21.346 0 0.71219 2.8125 3.5516 6.25 6.3098s9.9128 8.464 14.39 12.679 8.4494 7.6645 8.8281 7.6645 4.0664-3.5907 8.1949-7.9794c14.844-15.779 32.019-24.185 54.087-26.472l6.25-0.64765v41.886l-6.0828 1.0715c-13.21 2.3269-24.343 10.304-29.899 21.422-3.6626 7.3295-3.7128 8.6598-0.51815 13.72 1.375 2.1781 2.5 4.1942 2.5 4.4801s-11.383 0.51987-25.295 0.51987h-25.295l-3.9555-5.2416c-6.666-8.8334-25.388-26.876-36.455-35.133-27.234-20.318-54.745-32.362-88.5-38.744-14.143-2.6739-44.244-3.656-59.351-1.9363-47.122 5.3639-90.318 26.169-123.65 59.554-6.05 6.0598-12.78 13.377-14.955 16.259l-3.9555 5.2416h-25.295c-13.912 0-25.295-0.23394-25.295-0.51987zm216-123.98c9.625 0 20.766 0.34096 24.758 0.75768l7.2575 0.75768 3.4925-5.4596c1.9209-3.0028 3.4925-6.3094 3.4925-7.348 0-3.7214-6.1087-14.036-11.05-18.658-15.831-14.808-40.069-14.808-55.9 0-4.9414 4.6221-11.05 14.936-11.05 18.658 0 1.0386 1.5716 4.3452 3.4925 7.348l3.4925 5.4596 7.2575-0.75768c3.9916-0.41672 15.133-0.75768 24.758-0.75768zm-58.348-58.25c6.674-6.6079 12.265-11.102 17.348-13.944 20.708-11.581 45.002-14.013 66.961-6.7039 12.606 4.1962 21.491 9.861 32.387 20.648 5.4162 5.3625 10.078 9.75 10.36 9.75s4.1757-3.449 8.6524-7.6645 10.952-9.9212 14.39-12.679 6.25-5.5976 6.25-6.3098c0-2.3464-11.516-14.728-19.855-21.346-20.157-15.999-41.489-24.677-66.895-27.214-31.625-3.1582-63.263 6.4734-89.395 27.214-8.389 6.6584-19.855 19.004-19.855 21.378 0 0.72974 2.5875 3.3655 5.75 5.8571 3.1625 2.4917 9.575 8.1623 14.25 12.601 4.675 4.4391 8.7936 8.0919 9.1524 8.1172 0.35884 0.02533 5.0838-4.3414 10.5-9.7039zm-46.652 179.7c6.4721-5.5385 21.34-15.104 31.054-19.978 46.392-23.28 101.5-23.28 147.89 0 9.9235 4.9798 24.882 14.573 31.054 19.916l3.5 3.0297-108.5 0.0137-108.5 0.0137 3.5-2.9951z" fill="#62d1e9"/>
  </g>
 </g>
 <g transform="translate(0,-150)">
  <g transform="matrix(.2 0 0 .2 0 200)">
   <path d="m34 249.48c0-0.28593 1.125-2.302 2.5-4.4801 3.1947-5.0607 3.1444-6.391-0.51816-13.72-5.5559-11.118-16.689-19.095-29.899-21.422l-6.0829-1.0715v-41.886l6.25 0.64765c22.068 2.2868 39.243 10.693 54.087 26.472 4.1285 4.3886 7.8162 7.9794 8.1949 7.9794 0.37867 0 4.3513-3.449 8.8281-7.6645s10.952-9.9212 14.39-12.679c3.4375-2.7582 6.25-5.5976 6.25-6.3098 0-2.3464-11.517-14.728-19.855-21.346-20.122-15.971-41.417-24.646-66.895-27.252l-11.25-1.1507v-20.798c0-11.439 0.3375-20.794 0.75-20.788 6.3826 0.0878 26.943 2.5768 34.158 4.1352 34.678 7.4898 68.987 27.946 90.526 53.974 3.8141 4.609 7.5547 8.9002 8.3124 9.5359 1.0751 0.90199 3.2738 0.26738 10.01-2.8892 4.7476-2.2248 13.146-5.7482 18.662-7.8298 5.5166-2.0816 10.167-4.1951 10.334-4.6966 0.62329-1.8699-15.591-22.119-26.233-32.761-36.158-36.158-84.372-57.848-133.77-60.18l-12.75-0.60173v-42.698l5.25 8.3577e-4c2.8875 4.5967e-4 10.163 0.46676 16.169 1.0362 7.6327 0.72379 11.115 0.71826 11.57-0.018386 0.43568-0.70495 8.9978-0.96521 25.866-0.78622l25.214 0.26755-3.6999 5.2843c-2.1056 3.0073-3.3053 5.6194-2.7841 6.0621 0.50366 0.4278 4.9657 2.2714 9.9157 4.0969s13.21 5.2767 18.356 7.6694l9.3565 4.3503 2.6435-3.1319c9.3443-11.071 17.433-19.814 20.479-22.138l3.5309-2.6931h216.42l4.3398 3.5561c2.3869 1.9559 7.6082 7.4347 11.603 12.175 11.62 13.79 9.2254 12.847 19.967 7.8534 5.1131-2.3773 13.347-5.8159 18.297-7.6414s9.4121-3.6691 9.9158-4.0969c0.52116-0.44266-0.6785-3.0548-2.7841-6.0621l-3.6999-5.2843 25.214-0.26755c16.868-0.17898 25.43 0.081276 25.866 0.78622 0.45527 0.73665 3.9371 0.74218 11.57 0.018385 6.0052-0.56946 13.281-1.0358 16.169-1.0362l5.25-8.3577e-4v43h-7.8136c-4.2975 0-12.87 0.66685-19.049 1.4819-45.689 6.0261-87.029 26.412-119.66 59.009-10.634 10.623-26.857 30.877-26.233 32.75 0.16718 0.50154 4.8176 2.615 10.334 4.6966 5.5167 2.0816 13.99 5.6402 18.829 7.9079l8.7986 4.1232 2.3115-2.734c11.43-13.519 17.094-19.429 24.898-25.979 27.574-23.142 58.687-36.101 94.082-39.188 6.6-0.57554 12.338-1.0511 12.75-1.0568 0.4125-0.0057 0.75 9.349 0.75 20.788v20.798l-11.25 1.1507c-25.478 2.6061-46.773 11.281-66.895 27.252-8.3387 6.6185-19.855 19-19.855 21.346 0 0.71219 2.8125 3.5516 6.25 6.3098s9.9128 8.464 14.39 12.679 8.4494 7.6645 8.8281 7.6645 4.0664-3.5907 8.1949-7.9794c14.844-15.779 32.019-24.185 54.087-26.472l6.25-0.64765v41.886l-6.0828 1.0715c-13.21 2.3269-24.343 10.304-29.899 21.422-3.6626 7.3295-3.7128 8.6598-0.51815 13.72 1.375 2.1781 2.5 4.1942 2.5 4.4801s-11.383 0.51987-25.295 0.51987h-25.295l-3.9555-5.2416c-6.666-8.8334-25.388-26.876-36.455-35.133-27.234-20.318-54.745-32.362-88.5-38.744-14.143-2.6739-44.244-3.656-59.351-1.9363-47.122 5.3639-90.318 26.169-123.65 59.554-6.05 6.0598-12.78 13.377-14.955 16.259l-3.9555 5.2416h-25.295c-13.912 0-25.295-0.23394-25.295-0.51987zm216-123.98c9.625 0 20.766 0.34096 24.758 0.75768l7.2575 0.75768 3.4925-5.4596c1.9209-3.0028 3.4925-6.3094 3.4925-7.348 0-3.7214-6.1087-14.036-11.05-18.658-15.831-14.808-40.069-14.808-55.9 0-4.9414 4.6221-11.05 14.936-11.05 18.658 0 1.0386 1.5716 4.3452 3.4925 7.348l3.4925 5.4596 7.2575-0.75768c3.9916-0.41672 15.133-0.75768 24.758-0.75768zm-58.348-58.25c6.674-6.6079 12.265-11.102 17.348-13.944 20.708-11.581 45.002-14.013 66.961-6.7039 12.606 4.1962 21.491 9.861 32.387 20.648 5.4162 5.3625 10.078 9.75 10.36 9.75s4.1757-3.449 8.6524-7.6645 10.952-9.9212 14.39-12.679 6.25-5.5976 6.25-6.3098c0-2.3464-11.516-14.728-19.855-21.346-20.157-15.999-41.489-24.677-66.895-27.214-31.625-3.1582-63.263 6.4734-89.395 27.214-8.389 6.6584-19.855 19.004-19.855 21.378 0 0.72974 2.5875 3.3655 5.75 5.8571 3.1625 2.4917 9.575 8.1623 14.25 12.601 4.675 4.4391 8.7936 8.0919 9.1524 8.1172 0.35884 0.02533 5.0838-4.3414 10.5-9.7039zm-46.652 179.7c6.4721-5.5385 21.34-15.104 31.054-19.978 46.392-23.28 101.5-23.28 147.89 0 9.9235 4.9798 24.882 14.573 31.054 19.916l3.5 3.0297-108.5 0.0137-108.5 0.0137 3.5-2.9951z" fill="#62d1e9"/>
  </g>
  <g transform="matrix(.2 0 0 .2 100 200)">
   <path d="m34 249.48c0-0.28593 1.125-2.302 2.5-4.4801 3.1947-5.0607 3.1444-6.391-0.51816-13.72-5.5559-11.118-16.689-19.095-29.899-21.422l-6.0829-1.0715v-41.886l6.25 0.64765c22.068 2.2868 39.243 10.693 54.087 26.472 4.1285 4.3886 7.8162 7.9794 8.1949 7.9794 0.37867 0 4.3513-3.449 8.8281-7.6645s10.952-9.9212 14.39-12.679c3.4375-2.7582 6.25-5.5976 6.25-6.3098 0-2.3464-11.517-14.728-19.855-21.346-20.122-15.971-41.417-24.646-66.895-27.252l-11.25-1.1507v-20.798c0-11.439 0.3375-20.794 0.75-20.788 6.3826 0.0878 26.943 2.5768 34.158 4.1352 34.678 7.4898 68.987 27.946 90.526 53.974 3.8141 4.609 7.5547 8.9002 8.3124 9.5359 1.0751 0.90199 3.2738 0.26738 10.01-2.8892 4.7476-2.2248 13.146-5.7482 18.662-7.8298 5.5166-2.0816 10.167-4.1951 10.334-4.6966 0.62329-1.8699-15.591-22.119-26.233-32.761-36.158-36.158-84.372-57.848-133.77-60.18l-12.75-0.60173v-42.698l5.25 8.3577e-4c2.8875 4.5967e-4 10.163 0.46676 16.169 1.0362 7.6327 0.72379 11.115 0.71826 11.57-0.018386 0.43568-0.70495 8.9978-0.96521 25.866-0.78622l25.214 0.26755-3.6999 5.2843c-2.1056 3.0073-3.3053 5.6194-2.7841 6.0621 0.50366 0.4278 4.9657 2.2714 9.9157 4.0969s13.21 5.2767 18.356 7.6694l9.3565 4.3503 2.6435-3.1319c9.3443-11.071 17.433-19.814 20.479-22.138l3.5309-2.6931h216.42l4.3398 3.5561c2.3869 1.9559 7.6082 7.4347 11.603 12.175 11.62 13.79 9.2254 12.847 19.967 7.8534 5.1131-2.3773 13.347-5.8159 18.297-7.6414s9.4121-3.6691 9.9158-4.0969c0.52116-0.44266-0.6785-3.0548-2.7841-6.0621l-3.6999-5.2843 25.214-0.26755c16.868-0.17898 25.43 0.081276 25.866 0.78622 0.45527 0.73665 3.9371 0.74218 11.57 0.018385 6.0052-0.56946 13.281-1.0358 16.169-1.0362l5.25-8.3577e-4v43h-7.8136c-4.2975 0-12.87 0.66685-19.049 1.4819-45.689 6.0261-87.029 26.412-119.66 59.009-10.634 10.623-26.857 30.877-26.233 32.75 0.16718 0.50154 4.8176 2.615 10.334 4.6966 5.5167 2.0816 13.99 5.6402 18.829 7.9079l8.7986 4.1232 2.3115-2.734c11.43-13.519 17.094-19.429 24.898-25.979 27.574-23.142 58.687-36.101 94.082-39.188 6.6-0.57554 12.338-1.0511 12.75-1.0568 0.4125-0.0057 0.75 9.349 0.75 20.788v20.798l-11.25 1.1507c-25.478 2.6061-46.773 11.281-66.895 27.252-8.3387 6.6185-19.855 19-19.855 21.346 0 0.71219 2.8125 3.5516 6.25 6.3098s9.9128 8.464 14.39 12.679 8.4494 7.6645 8.8281 7.6645 4.0664-3.5907 8.1949-7.9794c14.844-15.779 32.019-24.185 54.087-26.472l6.25-0.64765v41.886l-6.0828 1.0715c-13.21 2.3269-24.343 10.304-29.899 21.422-3.6626 7.3295-3.7128 8.6598-0.51815 13.72 1.375 2.1781 2.5 4.1942 2.5 4.4801s-11.383 0.51987-25.295 0.51987h-25.295l-3.9555-5.2416c-6.666-8.8334-25.388-26.876-36.455-35.133-27.234-20.318-54.745-32.362-88.5-38.744-14.143-2.6739-44.244-3.656-59.351-1.9363-47.122 5.3639-90.318 26.169-123.65 59.554-6.05 6.0598-12.78 13.377-14.955 16.259l-3.9555 5.2416h-25.295c-13.912 0-25.295-0.23394-25.295-0.51987zm216-123.98c9.625 0 20.766 0.34096 24.758 0.75768l7.2575 0.75768 3.4925-5.4596c1.9209-3.0028 3.4925-6.3094 3.4925-7.348 0-3.7214-6.1087-14.036-11.05-18.658-15.831-14.808-40.069-14.808-55.9 0-4.9414 4.6221-11.05 14.936-11.05 18.658 0 1.0386 1.5716 4.3452 3.4925 7.348l3.4925 5.4596 7.2575-0.75768c3.9916-0.41672 15.133-0.75768 24.758-0.75768zm-58.348-58.25c6.674-6.6079 12.265-11.102 17.348-13.944 20.708-11.581 45.002-14.013 66.961-6.7039 12.606 4.1962 21.491 9.861 32.387 20.648 5.4162 5.3625 10.078 9.75 10.36 9.75s4.1757-3.449 8.6524-7.6645 10.952-9.9212 14.39-12.679 6.25-5.5976 6.25-6.3098c0-2.3464-11.516-14.728-19.855-21.346-20.157-15.999-41.489-24.677-66.895-27.214-31.625-3.1582-63.263 6.4734-89.395 27.214-8.389 6.6584-19.855 19.004-19.855 21.378 0 0.72974 2.5875 3.3655 5.75 5.8571 3.1625 2.4917 9.575 8.1623 14.25 12.601 4.675 4.4391 8.7936 8.0919 9.1524 8.1172 0.35884 0.02533 5.0838-4.3414 10.5-9.7039zm-46.652 179.7c6.4721-5.5385 21.34-15.104 31.054-19.978 46.392-23.28 101.5-23.28 147.89 0 9.9235 4.9798 24.882 14.573 31.054 19.916l3.5 3.0297-108.5 0.0137-108.5 0.0137 3.5-2.9951z" fill="#62d1e9"/>
  </g>
  <g transform="matrix(.2 0 0 .2 200 200)">
   <path d="m34 249.48c0-0.28593 1.125-2.302 2.5-4.4801 3.1947-5.0607 3.1444-6.391-0.51816-13.72-5.5559-11.118-16.689-19.095-29.899-21.422l-6.0829-1.0715v-41.886l6.25 0.64765c22.068 2.2868 39.243 10.693 54.087 26.472 4.1285 4.3886 7.8162 7.9794 8.1949 7.9794 0.37867 0 4.3513-3.449 8.8281-7.6645s10.952-9.9212 14.39-12.679c3.4375-2.7582 6.25-5.5976 6.25-6.3098 0-2.3464-11.517-14.728-19.855-21.346-20.122-15.971-41.417-24.646-66.895-27.252l-11.25-1.1507v-20.798c0-11.439 0.3375-20.794 0.75-20.788 6.3826 0.0878 26.943 2.5768 34.158 4.1352 34.678 7.4898 68.987 27.946 90.526 53.974 3.8141 4.609 7.5547 8.9002 8.3124 9.5359 1.0751 0.90199 3.2738 0.26738 10.01-2.8892 4.7476-2.2248 13.146-5.7482 18.662-7.8298 5.5166-2.0816 10.167-4.1951 10.334-4.6966 0.62329-1.8699-15.591-22.119-26.233-32.761-36.158-36.158-84.372-57.848-133.77-60.18l-12.75-0.60173v-42.698l5.25 8.3577e-4c2.8875 4.5967e-4 10.163 0.46676 16.169 1.0362 7.6327 0.72379 11.115 0.71826 11.57-0.018386 0.43568-0.70495 8.9978-0.96521 25.866-0.78622l25.214 0.26755-3.6999 5.2843c-2.1056 3.0073-3.3053 5.6194-2.7841 6.0621 0.50366 0.4278 4.9657 2.2714 9.9157 4.0969s13.21 5.2767 18.356 7.6694l9.3565 4.3503 2.6435-3.1319c9.3443-11.071 17.433-19.814 20.479-22.138l3.5309-2.6931h216.42l4.3398 3.5561c2.3869 1.9559 7.6082 7.4347 11.603 12.175 11.62 13.79 9.2254 12.847 19.967 7.8534 5.1131-2.3773 13.347-5.8159 18.297-7.6414s9.4121-3.6691 9.9158-4.0969c0.52116-0.44266-0.6785-3.0548-2.7841-6.0621l-3.6999-5.2843 25.214-0.26755c16.868-0.17898 25.43 0.081276 25.866 0.78622 0.45527 0.73665 3.9371 0.74218 11.57 0.018385 6.0052-0.56946 13.281-1.0358 16.169-1.0362l5.25-8.3577e-4v43h-7.8136c-4.2975 0-12.87 0.66685-19.049 1.4819-45.689 6.0261-87.029 26.412-119.66 59.009-10.634 10.623-26.857 30.877-26.233 32.75 0.16718 0.50154 4.8176 2.615 10.334 4.6966 5.5167 2.0816 13.99 5.6402 18.829 7.9079l8.7986 4.1232 2.3115-2.734c11.43-13.519 17.094-19.429 24.898-25.979 27.574-23.142 58.687-36.101 94.082-39.188 6.6-0.57554 12.338-1.0511 12.75-1.0568 0.4125-0.0057 0.75 9.349 0.75 20.788v20.798l-11.25 1.1507c-25.478 2.6061-46.773 11.281-66.895 27.252-8.3387 6.6185-19.855 19-19.855 21.346 0 0.71219 2.8125 3.5516 6.25 6.3098s9.9128 8.464 14.39 12.679 8.4494 7.6645 8.8281 7.6645 4.0664-3.5907 8.1949-7.9794c14.844-15.779 32.019-24.185 54.087-26.472l6.25-0.64765v41.886l-6.0828 1.0715c-13.21 2.3269-24.343 10.304-29.899 21.422-3.6626 7.3295-3.7128 8.6598-0.51815 13.72 1.375 2.1781 2.5 4.1942 2.5 4.4801s-11.383 0.51987-25.295 0.51987h-25.295l-3.9555-5.2416c-6.666-8.8334-25.388-26.876-36.455-35.133-27.234-20.318-54.745-32.362-88.5-38.744-14.143-2.6739-44.244-3.656-59.351-1.9363-47.122 5.3639-90.318 26.169-123.65 59.554-6.05 6.0598-12.78 13.377-14.955 16.259l-3.9555 5.2416h-25.295c-13.912 0-25.295-0.23394-25.295-0.51987zm216-123.98c9.625 0 20.766 0.34096 24.758 0.75768l7.2575 0.75768 3.4925-5.4596c1.9209-3.0028 3.4925-6.3094 3.4925-7.348 0-3.7214-6.1087-14.036-11.05-18.658-15.831-14.808-40.069-14.808-55.9 0-4.9414 4.6221-11.05 14.936-11.05 18.658 0 1.0386 1.5716 4.3452 3.4925 7.348l3.4925 5.4596 7.2575-0.75768c3.9916-0.41672 15.133-0.75768 24.758-0.75768zm-58.348-58.25c6.674-6.6079 12.265-11.102 17.348-13.944 20.708-11.581 45.002-14.013 66.961-6.7039 12.606 4.1962 21.491 9.861 32.387 20.648 5.4162 5.3625 10.078 9.75 10.36 9.75s4.1757-3.449 8.6524-7.6645 10.952-9.9212 14.39-12.679 6.25-5.5976 6.25-6.3098c0-2.3464-11.516-14.728-19.855-21.346-20.157-15.999-41.489-24.677-66.895-27.214-31.625-3.1582-63.263 6.4734-89.395 27.214-8.389 6.6584-19.855 19.004-19.855 21.378 0 0.72974 2.5875 3.3655 5.75 5.8571 3.1625 2.4917 9.575 8.1623 14.25 12.601 4.675 4.4391 8.7936 8.0919 9.1524 8.1172 0.35884 0.02533 5.0838-4.3414 10.5-9.7039zm-46.652 179.7c6.4721-5.5385 21.34-15.104 31.054-19.978 46.392-23.28 101.5-23.28 147.89 0 9.9235 4.9798 24.882 14.573 31.054 19.916l3.5 3.0297-108.5 0.0137-108.5 0.0137 3.5-2.9951z" fill="#62d1e9"/>
  </g>
  <g transform="matrix(.2 0 0 .2 300 200)">
   <path d="m34 249.48c0-0.28593 1.125-2.302 2.5-4.4801 3.1947-5.0607 3.1444-6.391-0.51816-13.72-5.5559-11.118-16.689-19.095-29.899-21.422l-6.0829-1.0715v-41.886l6.25 0.64765c22.068 2.2868 39.243 10.693 54.087 26.472 4.1285 4.3886 7.8162 7.9794 8.1949 7.9794 0.37867 0 4.3513-3.449 8.8281-7.6645s10.952-9.9212 14.39-12.679c3.4375-2.7582 6.25-5.5976 6.25-6.3098 0-2.3464-11.517-14.728-19.855-21.346-20.122-15.971-41.417-24.646-66.895-27.252l-11.25-1.1507v-20.798c0-11.439 0.3375-20.794 0.75-20.788 6.3826 0.0878 26.943 2.5768 34.158 4.1352 34.678 7.4898 68.987 27.946 90.526 53.974 3.8141 4.609 7.5547 8.9002 8.3124 9.5359 1.0751 0.90199 3.2738 0.26738 10.01-2.8892 4.7476-2.2248 13.146-5.7482 18.662-7.8298 5.5166-2.0816 10.167-4.1951 10.334-4.6966 0.62329-1.8699-15.591-22.119-26.233-32.761-36.158-36.158-84.372-57.848-133.77-60.18l-12.75-0.60173v-42.698l5.25 8.3577e-4c2.8875 4.5967e-4 10.163 0.46676 16.169 1.0362 7.6327 0.72379 11.115 0.71826 11.57-0.018386 0.43568-0.70495 8.9978-0.96521 25.866-0.78622l25.214 0.26755-3.6999 5.2843c-2.1056 3.0073-3.3053 5.6194-2.7841 6.0621 0.50366 0.4278 4.9657 2.2714 9.9157 4.0969s13.21 5.2767 18.356 7.6694l9.3565 4.3503 2.6435-3.1319c9.3443-11.071 17.433-19.814 20.479-22.138l3.5309-2.6931h216.42l4.3398 3.5561c2.3869 1.9559 7.6082 7.4347 11.603 12.175 11.62 13.79 9.2254 12.847 19.967 7.8534 5.1131-2.3773 13.347-5.8159 18.297-7.6414s9.4121-3.6691 9.9158-4.0969c0.52116-0.44266-0.6785-3.0548-2.7841-6.0621l-3.6999-5.2843 25.214-0.26755c16.868-0.17898 25.43 0.081276 25.866 0.78622 0.45527 0.73665 3.9371 0.74218 11.57 0.018385 6.0052-0.56946 13.281-1.0358 16.169-1.0362l5.25-8.3577e-4v43h-7.8136c-4.2975 0-12.87 0.66685-19.049 1.4819-45.689 6.0261-87.029 26.412-119.66 59.009-10.634 10.623-26.857 30.877-26.233 32.75 0.16718 0.50154 4.8176 2.615 10.334 4.6966 5.5167 2.0816 13.99 5.6402 18.829 7.9079l8.7986 4.1232 2.3115-2.734c11.43-13.519 17.094-19.429 24.898-25.979 27.574-23.142 58.687-36.101 94.082-39.188 6.6-0.57554 12.338-1.0511 12.75-1.0568 0.4125-0.0057 0.75 9.349 0.75 20.788v20.798l-11.25 1.1507c-25.478 2.6061-46.773 11.281-66.895 27.252-8.3387 6.6185-19.855 19-19.855 21.346 0 0.71219 2.8125 3.5516 6.25 6.3098s9.9128 8.464 14.39 12.679 8.4494 7.6645 8.8281 7.6645 4.0664-3.5907 8.1949-7.9794c14.844-15.779 32.019-24.185 54.087-26.472l6.25-0.64765v41.886l-6.0828 1.0715c-13.21 2.3269-24.343 10.304-29.899 21.422-3.6626 7.3295-3.7128 8.6598-0.51815 13.72 1.375 2.1781 2.5 4.1942 2.5 4.4801s-11.383 0.51987-25.295 0.51987h-25.295l-3.9555-5.2416c-6.666-8.8334-25.388-26.876-36.455-35.133-27.234-20.318-54.745-32.362-88.5-38.744-14.143-2.6739-44.244-3.656-59.351-1.9363-47.122 5.3639-90.318 26.169-123.65 59.554-6.05 6.0598-12.78 13.377-14.955 16.259l-3.9555 5.2416h-25.295c-13.912 0-25.295-0.23394-25.295-0.51987zm216-123.98c9.625 0 20.766 0.34096 24.758 0.75768l7.2575 0.75768 3.4925-5.4596c1.9209-3.0028 3.4925-6.3094 3.4925-7.348 0-3.7214-6.1087-14.036-11.05-18.658-15.831-14.808-40.069-14.808-55.9 0-4.9414 4.6221-11.05 14.936-11.05 18.658 0 1.0386 1.5716 4.3452 3.4925 7.348l3.4925 5.4596 7.2575-0.75768c3.9916-0.41672 15.133-0.75768 24.758-0.75768zm-58.348-58.25c6.674-6.6079 12.265-11.102 17.348-13.944 20.708-11.581 45.002-14.013 66.961-6.7039 12.606 4.1962 21.491 9.861 32.387 20.648 5.4162 5.3625 10.078 9.75 10.36 9.75s4.1757-3.449 8.6524-7.6645 10.952-9.9212 14.39-12.679 6.25-5.5976 6.25-6.3098c0-2.3464-11.516-14.728-19.855-21.346-20.157-15.999-41.489-24.677-66.895-27.214-31.625-3.1582-63.263 6.4734-89.395 27.214-8.389 6.6584-19.855 19.004-19.855 21.378 0 0.72974 2.5875 3.3655 5.75 5.8571 3.1625 2.4917 9.575 8.1623 14.25 12.601 4.675 4.4391 8.7936 8.0919 9.1524 8.1172 0.35884 0.02533 5.0838-4.3414 10.5-9.7039zm-46.652 179.7c6.4721-5.5385 21.34-15.104 31.054-19.978 46.392-23.28 101.5-23.28 147.89 0 9.9235 4.9798 24.882 14.573 31.054 19.916l3.5 3.0297-108.5 0.0137-108.5 0.0137 3.5-2.9951z" fill="#62d1e9"/>
  </g>
  <g transform="matrix(.2 0 0 .2 400 200)">
   <path d="m34 249.48c0-0.28593 1.125-2.302 2.5-4.4801 3.1947-5.0607 3.1444-6.391-0.51816-13.72-5.5559-11.118-16.689-19.095-29.899-21.422l-6.0829-1.0715v-41.886l6.25 0.64765c22.068 2.2868 39.243 10.693 54.087 26.472 4.1285 4.3886 7.8162 7.9794 8.1949 7.9794 0.37867 0 4.3513-3.449 8.8281-7.6645s10.952-9.9212 14.39-12.679c3.4375-2.7582 6.25-5.5976 6.25-6.3098 0-2.3464-11.517-14.728-19.855-21.346-20.122-15.971-41.417-24.646-66.895-27.252l-11.25-1.1507v-20.798c0-11.439 0.3375-20.794 0.75-20.788 6.3826 0.0878 26.943 2.5768 34.158 4.1352 34.678 7.4898 68.987 27.946 90.526 53.974 3.8141 4.609 7.5547 8.9002 8.3124 9.5359 1.0751 0.90199 3.2738 0.26738 10.01-2.8892 4.7476-2.2248 13.146-5.7482 18.662-7.8298 5.5166-2.0816 10.167-4.1951 10.334-4.6966 0.62329-1.8699-15.591-22.119-26.233-32.761-36.158-36.158-84.372-57.848-133.77-60.18l-12.75-0.60173v-42.698l5.25 8.3577e-4c2.8875 4.5967e-4 10.163 0.46676 16.169 1.0362 7.6327 0.72379 11.115 0.71826 11.57-0.018386 0.43568-0.70495 8.9978-0.96521 25.866-0.78622l25.214 0.26755-3.6999 5.2843c-2.1056 3.0073-3.3053 5.6194-2.7841 6.0621 0.50366 0.4278 4.9657 2.2714 9.9157 4.0969s13.21 5.2767 18.356 7.6694l9.3565 4.3503 2.6435-3.1319c9.3443-11.071 17.433-19.814 20.479-22.138l3.5309-2.6931h216.42l4.3398 3.5561c2.3869 1.9559 7.6082 7.4347 11.603 12.175 11.62 13.79 9.2254 12.847 19.967 7.8534 5.1131-2.3773 13.347-5.8159 18.297-7.6414s9.4121-3.6691 9.9158-4.0969c0.52116-0.44266-0.6785-3.0548-2.7841-6.0621l-3.6999-5.2843 25.214-0.26755c16.868-0.17898 25.43 0.081276 25.866 0.78622 0.45527 0.73665 3.9371 0.74218 11.57 0.018385 6.0052-0.56946 13.281-1.0358 16.169-1.0362l5.25-8.3577e-4v43h-7.8136c-4.2975 0-12.87 0.66685-19.049 1.4819-45.689 6.0261-87.029 26.412-119.66 59.009-10.634 10.623-26.857 30.877-26.233 32.75 0.16718 0.50154 4.8176 2.615 10.334 4.6966 5.5167 2.0816 13.99 5.6402 18.829 7.9079l8.7986 4.1232 2.3115-2.734c11.43-13.519 17.094-19.429 24.898-25.979 27.574-23.142 58.687-36.101 94.082-39.188 6.6-0.57554 12.338-1.0511 12.75-1.0568 0.4125-0.0057 0.75 9.349 0.75 20.788v20.798l-11.25 1.1507c-25.478 2.6061-46.773 11.281-66.895 27.252-8.3387 6.6185-19.855 19-19.855 21.346 0 0.71219 2.8125 3.5516 6.25 6.3098s9.9128 8.464 14.39 12.679 8.4494 7.6645 8.8281 7.6645 4.0664-3.5907 8.1949-7.9794c14.844-15.779 32.019-24.185 54.087-26.472l6.25-0.64765v41.886l-6.0828 1.0715c-13.21 2.3269-24.343 10.304-29.899 21.422-3.6626 7.3295-3.7128 8.6598-0.51815 13.72 1.375 2.1781 2.5 4.1942 2.5 4.4801s-11.383 0.51987-25.295 0.51987h-25.295l-3.9555-5.2416c-6.666-8.8334-25.388-26.876-36.455-35.133-27.234-20.318-54.745-32.362-88.5-38.744-14.143-2.6739-44.244-3.656-59.351-1.9363-47.122 5.3639-90.318 26.169-123.65 59.554-6.05 6.0598-12.78 13.377-14.955 16.259l-3.9555 5.2416h-25.295c-13.912 0-25.295-0.23394-25.295-0.51987zm216-123.98c9.625 0 20.766 0.34096 24.758 0.75768l7.2575 0.75768 3.4925-5.4596c1.9209-3.0028 3.4925-6.3094 3.4925-7.348 0-3.7214-6.1087-14.036-11.05-18.658-15.831-14.808-40.069-14.808-55.9 0-4.9414 4.6221-11.05 14.936-11.05 18.658 0 1.0386 1.5716 4.3452 3.4925 7.348l3.4925 5.4596 7.2575-0.75768c3.9916-0.41672 15.133-0.75768 24.758-0.75768zm-58.348-58.25c6.674-6.6079 12.265-11.102 17.348-13.944 20.708-11.581 45.002-14.013 66.961-6.7039 12.606 4.1962 21.491 9.861 32.387 20.648 5.4162 5.3625 10.078 9.75 10.36 9.75s4.1757-3.449 8.6524-7.6645 10.952-9.9212 14.39-12.679 6.25-5.5976 6.25-6.3098c0-2.3464-11.516-14.728-19.855-21.346-20.157-15.999-41.489-24.677-66.895-27.214-31.625-3.1582-63.263 6.4734-89.395 27.214-8.389 6.6584-19.855 19.004-19.855 21.378 0 0.72974 2.5875 3.3655 5.75 5.8571 3.1625 2.4917 9.575 8.1623 14.25 12.601 4.675 4.4391 8.7936 8.0919 9.1524 8.1172 0.35884 0.02533 5.0838-4.3414 10.5-9.7039zm-46.652 179.7c6.4721-5.5385 21.34-15.104 31.054-19.978 46.392-23.28 101.5-23.28 147.89 0 9.9235 4.9798 24.882 14.573 31.054 19.916l3.5 3.0297-108.5 0.0137-108.5 0.0137 3.5-2.9951z" fill="#62d1e9"/>
  </g>
 </g>
 <g transform="translate(0,-200)">
  <g transform="matrix(.2 0 0 .2 0 200)">
   <path d="m34 249.48c0-0.28593 1.125-2.302 2.5-4.4801 3.1947-5.0607 3.1444-6.391-0.51816-13.72-5.5559-11.118-16.689-19.095-29.899-21.422l-6.0829-1.0715v-41.886l6.25 0.64765c22.068 2.2868 39.243 10.693 54.087 26.472 4.1285 4.3886 7.8162 7.9794 8.1949 7.9794 0.37867 0 4.3513-3.449 8.8281-7.6645s10.952-9.9212 14.39-12.679c3.4375-2.7582 6.25-5.5976 6.25-6.3098 0-2.3464-11.517-14.728-19.855-21.346-20.122-15.971-41.417-24.646-66.895-27.252l-11.25-1.1507v-20.798c0-11.439 0.3375-20.794 0.75-20.788 6.3826 0.0878 26.943 2.5768 34.158 4.1352 34.678 7.4898 68.987 27.946 90.526 53.974 3.8141 4.609 7.5547 8.9002 8.3124 9.5359 1.0751 0.90199 3.2738 0.26738 10.01-2.8892 4.7476-2.2248 13.146-5.7482 18.662-7.8298 5.5166-2.0816 10.167-4.1951 10.334-4.6966 0.62329-1.8699-15.591-22.119-26.233-32.761-36.158-36.158-84.372-57.848-133.77-60.18l-12.75-0.60173v-42.698l5.25 8.3577e-4c2.8875 4.5967e-4 10.163 0.46676 16.169 1.0362 7.6327 0.72379 11.115 0.71826 11.57-0.018386 0.43568-0.70495 8.9978-0.96521 25.866-0.78622l25.214 0.26755-3.6999 5.2843c-2.1056 3.0073-3.3053 5.6194-2.7841 6.0621 0.50366 0.4278 4.9657 2.2714 9.9157 4.0969s13.21 5.2767 18.356 7.6694l9.3565 4.3503 2.6435-3.1319c9.3443-11.071 17.433-19.814 20.479-22.138l3.5309-2.6931h216.42l4.3398 3.5561c2.3869 1.9559 7.6082 7.4347 11.603 12.175 11.62 13.79 9.2254 12.847 19.967 7.8534 5.1131-2.3773 13.347-5.8159 18.297-7.6414s9.4121-3.6691 9.9158-4.0969c0.52116-0.44266-0.6785-3.0548-2.7841-6.0621l-3.6999-5.2843 25.214-0.26755c16.868-0.17898 25.43 0.081276 25.866 0.78622 0.45527 0.73665 3.9371 0.74218 11.57 0.018385 6.0052-0.56946 13.281-1.0358 16.169-1.0362l5.25-8.3577e-4v43h-7.8136c-4.2975 0-12.87 0.66685-19.049 1.4819-45.689 6.0261-87.029 26.412-119.66 59.009-10.634 10.623-26.857 30.877-26.233 32.75 0.16718 0.50154 4.8176 2.615 10.334 4.6966 5.5167 2.0816 13.99 5.6402 18.829 7.9079l8.7986 4.1232 2.3115-2.734c11.43-13.519 17.094-19.429 24.898-25.979 27.574-23.142 58.687-36.101 94.082-39.188 6.6-0.57554 12.338-1.0511 12.75-1.0568 0.4125-0.0057 0.75 9.349 0.75 20.788v20.798l-11.25 1.1507c-25.478 2.6061-46.773 11.281-66.895 27.252-8.3387 6.6185-19.855 19-19.855 21.346 0 0.71219 2.8125 3.5516 6.25 6.3098s9.9128 8.464 14.39 12.679 8.4494 7.6645 8.8281 7.6645 4.0664-3.5907 8.1949-7.9794c14.844-15.779 32.019-24.185 54.087-26.472l6.25-0.64765v41.886l-6.0828 1.0715c-13.21 2.3269-24.343 10.304-29.899 21.422-3.6626 7.3295-3.7128 8.6598-0.51815 13.72 1.375 2.1781 2.5 4.1942 2.5 4.4801s-11.383 0.51987-25.295 0.51987h-25.295l-3.9555-5.2416c-6.666-8.8334-25.388-26.876-36.455-35.133-27.234-20.318-54.745-32.362-88.5-38.744-14.143-2.6739-44.244-3.656-59.351-1.9363-47.122 5.3639-90.318 26.169-123.65 59.554-6.05 6.0598-12.78 13.377-14.955 16.259l-3.9555 5.2416h-25.295c-13.912 0-25.295-0.23394-25.295-0.51987zm216-123.98c9.625 0 20.766 0.34096 24.758 0.75768l7.2575 0.75768 3.4925-5.4596c1.9209-3.0028 3.4925-6.3094 3.4925-7.348 0-3.7214-6.1087-14.036-11.05-18.658-15.831-14.808-40.069-14.808-55.9 0-4.9414 4.6221-11.05 14.936-11.05 18.658 0 1.0386 1.5716 4.3452 3.4925 7.348l3.4925 5.4596 7.2575-0.75768c3.9916-0.41672 15.133-0.75768 24.758-0.75768zm-58.348-58.25c6.674-6.6079 12.265-11.102 17.348-13.944 20.708-11.581 45.002-14.013 66.961-6.7039 12.606 4.1962 21.491 9.861 32.387 20.648 5.4162 5.3625 10.078 9.75 10.36 9.75s4.1757-3.449 8.6524-7.6645 10.952-9.9212 14.39-12.679 6.25-5.5976 6.25-6.3098c0-2.3464-11.516-14.728-19.855-21.346-20.157-15.999-41.489-24.677-66.895-27.214-31.625-3.1582-63.263 6.4734-89.395 27.214-8.389 6.6584-19.855 19.004-19.855 21.378 0 0.72974 2.5875 3.3655 5.75 5.8571 3.1625 2.4917 9.575 8.1623 14.25 12.601 4.675 4.4391 8.7936 8.0919 9.1524 8.1172 0.35884 0.02533 5.0838-4.3414 10.5-9.7039zm-46.652 179.7c6.4721-5.5385 21.34-15.104 31.054-19.978 46.392-23.28 101.5-23.28 147.89 0 9.9235 4.9798 24.882 14.573 31.054 19.916l3.5 3.0297-108.5 0.0137-108.5 0.0137 3.5-2.9951z" fill="#62d1e9"/>
  </g>
  <g transform="matrix(.2 0 0 .2 100 200)">
   <path d="m34 249.48c0-0.28593 1.125-2.302 2.5-4.4801 3.1947-5.0607 3.1444-6.391-0.51816-13.72-5.5559-11.118-16.689-19.095-29.899-21.422l-6.0829-1.0715v-41.886l6.25 0.64765c22.068 2.2868 39.243 10.693 54.087 26.472 4.1285 4.3886 7.8162 7.9794 8.1949 7.9794 0.37867 0 4.3513-3.449 8.8281-7.6645s10.952-9.9212 14.39-12.679c3.4375-2.7582 6.25-5.5976 6.25-6.3098 0-2.3464-11.517-14.728-19.855-21.346-20.122-15.971-41.417-24.646-66.895-27.252l-11.25-1.1507v-20.798c0-11.439 0.3375-20.794 0.75-20.788 6.3826 0.0878 26.943 2.5768 34.158 4.1352 34.678 7.4898 68.987 27.946 90.526 53.974 3.8141 4.609 7.5547 8.9002 8.3124 9.5359 1.0751 0.90199 3.2738 0.26738 10.01-2.8892 4.7476-2.2248 13.146-5.7482 18.662-7.8298 5.5166-2.0816 10.167-4.1951 10.334-4.6966 0.62329-1.8699-15.591-22.119-26.233-32.761-36.158-36.158-84.372-57.848-133.77-60.18l-12.75-0.60173v-42.698l5.25 8.3577e-4c2.8875 4.5967e-4 10.163 0.46676 16.169 1.0362 7.6327 0.72379 11.115 0.71826 11.57-0.018386 0.43568-0.70495 8.9978-0.96521 25.866-0.78622l25.214 0.26755-3.6999 5.2843c-2.1056 3.0073-3.3053 5.6194-2.7841 6.0621 0.50366 0.4278 4.9657 2.2714 9.9157 4.0969s13.21 5.2767 18.356 7.6694l9.3565 4.3503 2.6435-3.1319c9.3443-11.071 17.433-19.814 20.479-22.138l3.5309-2.6931h216.42l4.3398 3.5561c2.3869 1.9559 7.6082 7.4347 11.603 12.175 11.62 13.79 9.2254 12.847 19.967 7.8534 5.1131-2.3773 13.347-5.8159 18.297-7.6414s9.4121-3.6691 9.9158-4.0969c0.52116-0.44266-0.6785-3.0548-2.7841-6.0621l-3.6999-5.2843 25.214-0.26755c16.868-0.17898 25.43 0.081276 25.866 0.78622 0.45527 0.73665 3.9371 0.74218 11.57 0.018385 6.0052-0.56946 13.281-1.0358 16.169-1.0362l5.25-8.3577e-4v43h-7.8136c-4.2975 0-12.87 0.66685-19.049 1.4819-45.689 6.0261-87.029 26.412-119.66 59.009-10.634 10.623-26.857 30.877-26.233 32.75 0.16718 0.50154 4.8176 2.615 10.334 4.6966 5.5167 2.0816 13.99 5.6402 18.829 7.9079l8.7986 4.1232 2.3115-2.734c11.43-13.519 17.094-19.429 24.898-25.979 27.574-23.142 58.687-36.101 94.082-39.188 6.6-0.57554 12.338-1.0511 12.75-1.0568 0.4125-0.0057 0.75 9.349 0.75 20.788v20.798l-11.25 1.1507c-25.478 2.6061-46.773 11.281-66.895 27.252-8.3387 6.6185-19.855 19-19.855 21.346 0 0.71219 2.8125 3.5516 6.25 6.3098s9.9128 8.464 14.39 12.679 8.4494 7.6645 8.8281 7.6645 4.0664-3.5907 8.1949-7.9794c14.844-15.779 32.019-24.185 54.087-26.472l6.25-0.64765v41.886l-6.0828 1.0715c-13.21 2.3269-24.343 10.304-29.899 21.422-3.6626 7.3295-3.7128 8.6598-0.51815 13.72 1.375 2.1781 2.5 4.1942 2.5 4.4801s-11.383 0.51987-25.295 0.51987h-25.295l-3.9555-5.2416c-6.666-8.8334-25.388-26.876-36.455-35.133-27.234-20.318-54.745-32.362-88.5-38.744-14.143-2.6739-44.244-3.656-59.351-1.9363-47.122 5.3639-90.318 26.169-123.65 59.554-6.05 6.0598-12.78 13.377-14.955 16.259l-3.9555 5.2416h-25.295c-13.912 0-25.295-0.23394-25.295-0.51987zm216-123.98c9.625 0 20.766 0.34096 24.758 0.75768l7.2575 0.75768 3.4925-5.4596c1.9209-3.0028 3.4925-6.3094 3.4925-7.348 0-3.7214-6.1087-14.036-11.05-18.658-15.831-14.808-40.069-14.808-55.9 0-4.9414 4.6221-11.05 14.936-11.05 18.658 0 1.0386 1.5716 4.3452 3.4925 7.348l3.4925 5.4596 7.2575-0.75768c3.9916-0.41672 15.133-0.75768 24.758-0.75768zm-58.348-58.25c6.674-6.6079 12.265-11.102 17.348-13.944 20.708-11.581 45.002-14.013 66.961-6.7039 12.606 4.1962 21.491 9.861 32.387 20.648 5.4162 5.3625 10.078 9.75 10.36 9.75s4.1757-3.449 8.6524-7.6645 10.952-9.9212 14.39-12.679 6.25-5.5976 6.25-6.3098c0-2.3464-11.516-14.728-19.855-21.346-20.157-15.999-41.489-24.677-66.895-27.214-31.625-3.1582-63.263 6.4734-89.395 27.214-8.389 6.6584-19.855 19.004-19.855 21.378 0 0.72974 2.5875 3.3655 5.75 5.8571 3.1625 2.4917 9.575 8.1623 14.25 12.601 4.675 4.4391 8.7936 8.0919 9.1524 8.1172 0.35884 0.02533 5.0838-4.3414 10.5-9.7039zm-46.652 179.7c6.4721-5.5385 21.34-15.104 31.054-19.978 46.392-23.28 101.5-23.28 147.89 0 9.9235 4.9798 24.882 14.573 31.054 19.916l3.5 3.0297-108.5 0.0137-108.5 0.0137 3.5-2.9951z" fill="#62d1e9"/>
  </g>
  <g transform="matrix(.2 0 0 .2 200 200)">
   <path d="m34 249.48c0-0.28593 1.125-2.302 2.5-4.4801 3.1947-5.0607 3.1444-6.391-0.51816-13.72-5.5559-11.118-16.689-19.095-29.899-21.422l-6.0829-1.0715v-41.886l6.25 0.64765c22.068 2.2868 39.243 10.693 54.087 26.472 4.1285 4.3886 7.8162 7.9794 8.1949 7.9794 0.37867 0 4.3513-3.449 8.8281-7.6645s10.952-9.9212 14.39-12.679c3.4375-2.7582 6.25-5.5976 6.25-6.3098 0-2.3464-11.517-14.728-19.855-21.346-20.122-15.971-41.417-24.646-66.895-27.252l-11.25-1.1507v-20.798c0-11.439 0.3375-20.794 0.75-20.788 6.3826 0.0878 26.943 2.5768 34.158 4.1352 34.678 7.4898 68.987 27.946 90.526 53.974 3.8141 4.609 7.5547 8.9002 8.3124 9.5359 1.0751 0.90199 3.2738 0.26738 10.01-2.8892 4.7476-2.2248 13.146-5.7482 18.662-7.8298 5.5166-2.0816 10.167-4.1951 10.334-4.6966 0.62329-1.8699-15.591-22.119-26.233-32.761-36.158-36.158-84.372-57.848-133.77-60.18l-12.75-0.60173v-42.698l5.25 8.3577e-4c2.8875 4.5967e-4 10.163 0.46676 16.169 1.0362 7.6327 0.72379 11.115 0.71826 11.57-0.018386 0.43568-0.70495 8.9978-0.96521 25.866-0.78622l25.214 0.26755-3.6999 5.2843c-2.1056 3.0073-3.3053 5.6194-2.7841 6.0621 0.50366 0.4278 4.9657 2.2714 9.9157 4.0969s13.21 5.2767 18.356 7.6694l9.3565 4.3503 2.6435-3.1319c9.3443-11.071 17.433-19.814 20.479-22.138l3.5309-2.6931h216.42l4.3398 3.5561c2.3869 1.9559 7.6082 7.4347 11.603 12.175 11.62 13.79 9.2254 12.847 19.967 7.8534 5.1131-2.3773 13.347-5.8159 18.297-7.6414s9.4121-3.6691 9.9158-4.0969c0.52116-0.44266-0.6785-3.0548-2.7841-6.0621l-3.6999-5.2843 25.214-0.26755c16.868-0.17898 25.43 0.081276 25.866 0.78622 0.45527 0.73665 3.9371 0.74218 11.57 0.018385 6.0052-0.56946 13.281-1.0358 16.169-1.0362l5.25-8.3577e-4v43h-7.8136c-4.2975 0-12.87 0.66685-19.049 1.4819-45.689 6.0261-87.029 26.412-119.66 59.009-10.634 10.623-26.857 30.877-26.233 32.75 0.16718 0.50154 4.8176 2.615 10.334 4.6966 5.5167 2.0816 13.99 5.6402 18.829 7.9079l8.7986 4.1232 2.3115-2.734c11.43-13.519 17.094-19.429 24.898-25.979 27.574-23.142 58.687-36.101 94.082-39.188 6.6-0.57554 12.338-1.0511 12.75-1.0568 0.4125-0.0057 0.75 9.349 0.75 20.788v20.798l-11.25 1.1507c-25.478 2.6061-46.773 11.281-66.895 27.252-8.3387 6.6185-19.855 19-19.855 21.346 0 0.71219 2.8125 3.5516 6.25 6.3098s9.9128 8.464 14.39 12.679 8.4494 7.6645 8.8281 7.6645 4.0664-3.5907 8.1949-7.9794c14.844-15.779 32.019-24.185 54.087-26.472l6.25-0.64765v41.886l-6.0828 1.0715c-13.21 2.3269-24.343 10.304-29.899 21.422-3.6626 7.3295-3.7128 8.6598-0.51815 13.72 1.375 2.1781 2.5 4.1942 2.5 4.4801s-11.383 0.51987-25.295 0.51987h-25.295l-3.9555-5.2416c-6.666-8.8334-25.388-26.876-36.455-35.133-27.234-20.318-54.745-32.362-88.5-38.744-14.143-2.6739-44.244-3.656-59.351-1.9363-47.122 5.3639-90.318 26.169-123.65 59.554-6.05 6.0598-12.78 13.377-14.955 16.259l-3.9555 5.2416h-25.295c-13.912 0-25.295-0.23394-25.295-0.51987zm216-123.98c9.625 0 20.766 0.34096 24.758 0.75768l7.2575 0.75768 3.4925-5.4596c1.9209-3.0028 3.4925-6.3094 3.4925-7.348 0-3.7214-6.1087-14.036-11.05-18.658-15.831-14.808-40.069-14.808-55.9 0-4.9414 4.6221-11.05 14.936-11.05 18.658 0 1.0386 1.5716 4.3452 3.4925 7.348l3.4925 5.4596 7.2575-0.75768c3.9916-0.41672 15.133-0.75768 24.758-0.75768zm-58.348-58.25c6.674-6.6079 12.265-11.102 17.348-13.944 20.708-11.581 45.002-14.013 66.961-6.7039 12.606 4.1962 21.491 9.861 32.387 20.648 5.4162 5.3625 10.078 9.75 10.36 9.75s4.1757-3.449 8.6524-7.6645 10.952-9.9212 14.39-12.679 6.25-5.5976 6.25-6.3098c0-2.3464-11.516-14.728-19.855-21.346-20.157-15.999-41.489-24.677-66.895-27.214-31.625-3.1582-63.263 6.4734-89.395 27.214-8.389 6.6584-19.855 19.004-19.855 21.378 0 0.72974 2.5875 3.3655 5.75 5.8571 3.1625 2.4917 9.575 8.1623 14.25 12.601 4.675 4.4391 8.7936 8.0919 9.1524 8.1172 0.35884 0.02533 5.0838-4.3414 10.5-9.7039zm-46.652 179.7c6.4721-5.5385 21.34-15.104 31.054-19.978 46.392-23.28 101.5-23.28 147.89 0 9.9235 4.9798 24.882 14.573 31.054 19.916l3.5 3.0297-108.5 0.0137-108.5 0.0137 3.5-2.9951z" fill="#62d1e9"/>
  </g>
  <g transform="matrix(.2 0 0 .2 300 200)">
   <path d="m34 249.48c0-0.28593 1.125-2.302 2.5-4.4801 3.1947-5.0607 3.1444-6.391-0.51816-13.72-5.5559-11.118-16.689-19.095-29.899-21.422l-6.0829-1.0715v-41.886l6.25 0.64765c22.068 2.2868 39.243 10.693 54.087 26.472 4.1285 4.3886 7.8162 7.9794 8.1949 7.9794 0.37867 0 4.3513-3.449 8.8281-7.6645s10.952-9.9212 14.39-12.679c3.4375-2.7582 6.25-5.5976 6.25-6.3098 0-2.3464-11.517-14.728-19.855-21.346-20.122-15.971-41.417-24.646-66.895-27.252l-11.25-1.1507v-20.798c0-11.439 0.3375-20.794 0.75-20.788 6.3826 0.0878 26.943 2.5768 34.158 4.1352 34.678 7.4898 68.987 27.946 90.526 53.974 3.8141 4.609 7.5547 8.9002 8.3124 9.5359 1.0751 0.90199 3.2738 0.26738 10.01-2.8892 4.7476-2.2248 13.146-5.7482 18.662-7.8298 5.5166-2.0816 10.167-4.1951 10.334-4.6966 0.62329-1.8699-15.591-22.119-26.233-32.761-36.158-36.158-84.372-57.848-133.77-60.18l-12.75-0.60173v-42.698l5.25 8.3577e-4c2.8875 4.5967e-4 10.163 0.46676 16.169 1.0362 7.6327 0.72379 11.115 0.71826 11.57-0.018386 0.43568-0.70495 8.9978-0.96521 25.866-0.78622l25.214 0.26755-3.6999 5.2843c-2.1056 3.0073-3.3053 5.6194-2.7841 6.0621 0.50366 0.4278 4.9657 2.2714 9.9157 4.0969s13.21 5.2767 18.356 7.6694l9.3565 4.3503 2.6435-3.1319c9.3443-11.071 17.433-19.814 20.479-22.138l3.5309-2.6931h216.42l4.3398 3.5561c2.3869 1.9559 7.6082 7.4347 11.603 12.175 11.62 13.79 9.2254 12.847 19.967 7.8534 5.1131-2.3773 13.347-5.8159 18.297-7.6414s9.4121-3.6691 9.9158-4.0969c0.52116-0.44266-0.6785-3.0548-2.7841-6.0621l-3.6999-5.2843 25.214-0.26755c16.868-0.17898 25.43 0.081276 25.866 0.78622 0.45527 0.73665 3.9371 0.74218 11.57 0.018385 6.0052-0.56946 13.281-1.0358 16.169-1.0362l5.25-8.3577e-4v43h-7.8136c-4.2975 0-12.87 0.66685-19.049 1.4819-45.689 6.0261-87.029 26.412-119.66 59.009-10.634 10.623-26.857 30.877-26.233 32.75 0.16718 0.50154 4.8176 2.615 10.334 4.6966 5.5167 2.0816 13.99 5.6402 18.829 7.9079l8.7986 4.1232 2.3115-2.734c11.43-13.519 17.094-19.429 24.898-25.979 27.574-23.142 58.687-36.101 94.082-39.188 6.6-0.57554 12.338-1.0511 12.75-1.0568 0.4125-0.0057 0.75 9.349 0.75 20.788v20.798l-11.25 1.1507c-25.478 2.6061-46.773 11.281-66.895 27.252-8.3387 6.6185-19.855 19-19.855 21.346 0 0.71219 2.8125 3.5516 6.25 6.3098s9.9128 8.464 14.39 12.679 8.4494 7.6645 8.8281 7.6645 4.0664-3.5907 8.1949-7.9794c14.844-15.779 32.019-24.185 54.087-26.472l6.25-0.64765v41.886l-6.0828 1.0715c-13.21 2.3269-24.343 10.304-29.899 21.422-3.6626 7.3295-3.7128 8.6598-0.51815 13.72 1.375 2.1781 2.5 4.1942 2.5 4.4801s-11.383 0.51987-25.295 0.51987h-25.295l-3.9555-5.2416c-6.666-8.8334-25.388-26.876-36.455-35.133-27.234-20.318-54.745-32.362-88.5-38.744-14.143-2.6739-44.244-3.656-59.351-1.9363-47.122 5.3639-90.318 26.169-123.65 59.554-6.05 6.0598-12.78 13.377-14.955 16.259l-3.9555 5.2416h-25.295c-13.912 0-25.295-0.23394-25.295-0.51987zm216-123.98c9.625 0 20.766 0.34096 24.758 0.75768l7.2575 0.75768 3.4925-5.4596c1.9209-3.0028 3.4925-6.3094 3.4925-7.348 0-3.7214-6.1087-14.036-11.05-18.658-15.831-14.808-40.069-14.808-55.9 0-4.9414 4.6221-11.05 14.936-11.05 18.658 0 1.0386 1.5716 4.3452 3.4925 7.348l3.4925 5.4596 7.2575-0.75768c3.9916-0.41672 15.133-0.75768 24.758-0.75768zm-58.348-58.25c6.674-6.6079 12.265-11.102 17.348-13.944 20.708-11.581 45.002-14.013 66.961-6.7039 12.606 4.1962 21.491 9.861 32.387 20.648 5.4162 5.3625 10.078 9.75 10.36 9.75s4.1757-3.449 8.6524-7.6645 10.952-9.9212 14.39-12.679 6.25-5.5976 6.25-6.3098c0-2.3464-11.516-14.728-19.855-21.346-20.157-15.999-41.489-24.677-66.895-27.214-31.625-3.1582-63.263 6.4734-89.395 27.214-8.389 6.6584-19.855 19.004-19.855 21.378 0 0.72974 2.5875 3.3655 5.75 5.8571 3.1625 2.4917 9.575 8.1623 14.25 12.601 4.675 4.4391 8.7936 8.0919 9.1524 8.1172 0.35884 0.02533 5.0838-4.3414 10.5-9.7039zm-46.652 179.7c6.4721-5.5385 21.34-15.104 31.054-19.978 46.392-23.28 101.5-23.28 147.89 0 9.9235 4.9798 24.882 14.573 31.054 19.916l3.5 3.0297-108.5 0.0137-108.5 0.0137 3.5-2.9951z" fill="#62d1e9"/>
  </g>
  <g transform="matrix(.2 0 0 .2 400 200)">
   <path d="m34 249.48c0-0.28593 1.125-2.302 2.5-4.4801 3.1947-5.0607 3.1444-6.391-0.51816-13.72-5.5559-11.118-16.689-19.095-29.899-21.422l-6.0829-1.0715v-41.886l6.25 0.64765c22.068 2.2868 39.243 10.693 54.087 26.472 4.1285 4.3886 7.8162 7.9794 8.1949 7.9794 0.37867 0 4.3513-3.449 8.8281-7.6645s10.952-9.9212 14.39-12.679c3.4375-2.7582 6.25-5.5976 6.25-6.3098 0-2.3464-11.517-14.728-19.855-21.346-20.122-15.971-41.417-24.646-66.895-27.252l-11.25-1.1507v-20.798c0-11.439 0.3375-20.794 0.75-20.788 6.3826 0.0878 26.943 2.5768 34.158 4.1352 34.678 7.4898 68.987 27.946 90.526 53.974 3.8141 4.609 7.5547 8.9002 8.3124 9.5359 1.0751 0.90199 3.2738 0.26738 10.01-2.8892 4.7476-2.2248 13.146-5.7482 18.662-7.8298 5.5166-2.0816 10.167-4.1951 10.334-4.6966 0.62329-1.8699-15.591-22.119-26.233-32.761-36.158-36.158-84.372-57.848-133.77-60.18l-12.75-0.60173v-42.698l5.25 8.3577e-4c2.8875 4.5967e-4 10.163 0.46676 16.169 1.0362 7.6327 0.72379 11.115 0.71826 11.57-0.018386 0.43568-0.70495 8.9978-0.96521 25.866-0.78622l25.214 0.26755-3.6999 5.2843c-2.1056 3.0073-3.3053 5.6194-2.7841 6.0621 0.50366 0.4278 4.9657 2.2714 9.9157 4.0969s13.21 5.2767 18.356 7.6694l9.3565 4.3503 2.6435-3.1319c9.3443-11.071 17.433-19.814 20.479-22.138l3.5309-2.6931h216.42l4.3398 3.5561c2.3869 1.9559 7.6082 7.4347 11.603 12.175 11.62 13.79 9.2254 12.847 19.967 7.8534 5.1131-2.3773 13.347-5.8159 18.297-7.6414s9.4121-3.6691 9.9158-4.0969c0.52116-0.44266-0.6785-3.0548-2.7841-6.0621l-3.6999-5.2843 25.214-0.26755c16.868-0.17898 25.43 0.081276 25.866 0.78622 0.45527 0.73665 3.9371 0.74218 11.57 0.018385 6.0052-0.56946 13.281-1.0358 16.169-1.0362l5.25-8.3577e-4v43h-7.8136c-4.2975 0-12.87 0.66685-19.049 1.4819-45.689 6.0261-87.029 26.412-119.66 59.009-10.634 10.623-26.857 30.877-26.233 32.75 0.16718 0.50154 4.8176 2.615 10.334 4.6966 5.5167 2.0816 13.99 5.6402 18.829 7.9079l8.7986 4.1232 2.3115-2.734c11.43-13.519 17.094-19.429 24.898-25.979 27.574-23.142 58.687-36.101 94.082-39.188 6.6-0.57554 12.338-1.0511 12.75-1.0568 0.4125-0.0057 0.75 9.349 0.75 20.788v20.798l-11.25 1.1507c-25.478 2.6061-46.773 11.281-66.895 27.252-8.3387 6.6185-19.855 19-19.855 21.346 0 0.71219 2.8125 3.5516 6.25 6.3098s9.9128 8.464 14.39 12.679 8.4494 7.6645 8.8281 7.6645 4.0664-3.5907 8.1949-7.9794c14.844-15.779 32.019-24.185 54.087-26.472l6.25-0.64765v41.886l-6.0828 1.0715c-13.21 2.3269-24.343 10.304-29.899 21.422-3.6626 7.3295-3.7128 8.6598-0.51815 13.72 1.375 2.1781 2.5 4.1942 2.5 4.4801s-11.383 0.51987-25.295 0.51987h-25.295l-3.9555-5.2416c-6.666-8.8334-25.388-26.876-36.455-35.133-27.234-20.318-54.745-32.362-88.5-38.744-14.143-2.6739-44.244-3.656-59.351-1.9363-47.122 5.3639-90.318 26.169-123.65 59.554-6.05 6.0598-12.78 13.377-14.955 16.259l-3.9555 5.2416h-25.295c-13.912 0-25.295-0.23394-25.295-0.51987zm216-123.98c9.625 0 20.766 0.34096 24.758 0.75768l7.2575 0.75768 3.4925-5.4596c1.9209-3.0028 3.4925-6.3094 3.4925-7.348 0-3.7214-6.1087-14.036-11.05-18.658-15.831-14.808-40.069-14.808-55.9 0-4.9414 4.6221-11.05 14.936-11.05 18.658 0 1.0386 1.5716 4.3452 3.4925 7.348l3.4925 5.4596 7.2575-0.75768c3.9916-0.41672 15.133-0.75768 24.758-0.75768zm-58.348-58.25c6.674-6.6079 12.265-11.102 17.348-13.944 20.708-11.581 45.002-14.013 66.961-6.7039 12.606 4.1962 21.491 9.861 32.387 20.648 5.4162 5.3625 10.078 9.75 10.36 9.75s4.1757-3.449 8.6524-7.6645 10.952-9.9212 14.39-12.679 6.25-5.5976 6.25-6.3098c0-2.3464-11.516-14.728-19.855-21.346-20.157-15.999-41.489-24.677-66.895-27.214-31.625-3.1582-63.263 6.4734-89.395 27.214-8.389 6.6584-19.855 19.004-19.855 21.378 0 0.72974 2.5875 3.3655 5.75 5.8571 3.1625 2.4917 9.575 8.1623 14.25 12.601 4.675 4.4391 8.7936 8.0919 9.1524 8.1172 0.35884 0.02533 5.0838-4.3414 10.5-9.7039zm-46.652 179.7c6.4721-5.5385 21.34-15.104 31.054-19.978 46.392-23.28 101.5-23.28 147.89 0 9.9235 4.9798 24.882 14.573 31.054 19.916l3.5 3.0297-108.5 0.0137-108.5 0.0137 3.5-2.9951z" fill="#62d1e9"/>
  </g>
 </g>
</svg>
